<svg width="48" height="48" viewBox="0 0 29 30" fill="none" xmlns="http://www.w3.org/2000/svg">
<path d="M14.5 28.6797C10.8086 28.6797 7.33594 27.2305 4.73828 24.6328C2.14062 22.0352 0.691406 18.5625 0.691406 14.8711C0.691406 11.1797 2.14062 7.70703 4.73828 5.10938C7.33594 2.51172 10.8086 1.0625 14.5 1.0625C18.1914 1.0625 21.6641 2.51172 24.2617 5.10938C29.6484 10.4961 29.6484 19.2461 24.2617 24.6328C21.6641 27.2305 18.1914 28.6797 14.5 28.6797ZM14.5 2.70313C11.2461 2.70313 8.18359 3.96094 5.88672 6.25781C3.58984 8.55469 2.33203 11.6172 2.33203 14.8711C2.33203 18.125 3.58984 21.1875 5.88672 23.4844C8.18359 25.7812 11.2461 27.0391 14.5 27.0391C17.7539 27.0391 20.8164 25.7812 23.1133 23.4844C27.8711 18.7266 27.8711 11.0156 23.1133 6.25781C20.8164 3.96094 17.7539 2.70313 14.5 2.70313Z" fill="#DB1F1F" stroke="#DB1F1F" stroke-width="1.024"/>
<path d="M21.1948 9.25853L8.89775 21.5553L7.81494 20.4725L20.112 8.17572L21.1948 9.25853Z" fill="#DB1F1F" stroke="#DB1F1F" stroke-width="1.024"/>
<path d="M8.21094 9.64844L9.30469 8.58203L21.1992 20.4766L20.1055 21.5703L8.21094 9.64844Z" fill="#DB1F1F" stroke="#DB1F1F" stroke-width="1.024"/>
</svg>
