<svg width="45" height="45" viewBox="0 0 45 45" fill="none" xmlns="http://www.w3.org/2000/svg">
<g clip-path="url(#clip0_20_195)">
<path d="M31.3444 34.0266C31.16 33.9637 28.1384 32.5501 28.0756 32.5272C27.1208 32.1828 27.1579 31.5682 27.0379 30.8821C26.9424 30.3651 26.8785 29.8428 26.8463 29.3181C29.3275 28.2648 31.3256 24.9228 31.6733 23.9786C31.7256 23.8201 31.8318 23.5212 31.9266 23.1677C32.0538 23.1453 32.1256 23.1343 32.1256 23.1343C32.5501 23.0634 32.949 22.8837 33.2833 22.6126C33.6947 22.2627 34.0258 21.8282 34.2538 21.3387C34.7377 20.3703 34.946 19.2874 34.856 18.2085C34.8435 17.9327 34.7732 17.6626 34.6496 17.4157C34.543 17.2368 34.3976 17.0841 34.2242 16.9688C34.0508 16.8535 33.8537 16.7786 33.6475 16.7495C33.4374 16.7187 33.2231 16.7336 33.0193 16.7932C32.8154 16.8528 32.6269 16.9557 32.4664 17.0949C32.4664 17.0949 33.4949 8.82439 22.5253 8.82439C12.2109 8.82439 12.6561 17.0951 12.6561 17.0951C12.4957 16.9559 12.3071 16.8529 12.1033 16.7933C11.8995 16.7336 11.6852 16.7187 11.475 16.7495C11.2688 16.7786 11.0717 16.8535 10.8983 16.9688C10.7249 17.0841 10.5795 17.2368 10.4728 17.4157C10.3493 17.6626 10.279 17.9327 10.2665 18.2085C10.1765 19.2874 10.3848 20.3703 10.8687 21.3387C11.0967 21.8283 11.4278 22.2628 11.8392 22.6126C12.1735 22.8837 12.5724 23.0635 12.997 23.1343C12.997 23.1343 13.1399 23.1561 13.3742 23.1914C13.7413 24.558 14.3932 25.8316 15.2871 26.9286C16.1491 27.9602 17.1115 28.7517 18.1582 29.2499C18.1274 29.7976 18.062 30.3427 17.9625 30.8821C17.842 31.5692 17.8797 32.1828 16.9245 32.5282C16.8613 32.551 13.84 33.9641 13.6561 34.0269C13.6561 34.0269 13.7169 39.2868 22.3565 39.2868C30.9961 39.2868 31.3444 34.0266 31.3444 34.0266Z" fill="white"/>
<path d="M42.1007 43.5294C41.7367 42.7758 41.4268 41.9956 41.0084 41.2688C40.6379 40.6256 39.9554 39.0819 38.5651 37.8492C37.8286 37.1963 36.0188 35.8726 33.2603 34.5881C32.761 34.3557 32.1983 34.0857 31.6309 33.8247L31.612 33.8381C28.9378 35.6981 25.7587 36.6957 22.5012 36.697C19.2438 36.6984 16.0639 35.7035 13.3881 33.8458L13.3626 33.8278C12.7969 34.0878 12.2367 34.3567 11.7393 34.5881C8.98072 35.8726 7.17105 37.1963 6.43466 37.8492C5.04421 39.082 4.36213 40.6253 3.99122 41.2688C3.57285 41.9956 3.26226 42.7758 2.89893 43.5294H42.1007Z" fill="white"/>
<path d="M31.4492 10.1528C32.0301 10.796 33.1917 11.2471 34.4827 11.2534C35.8813 11.2588 37.1305 10.7629 37.8949 10.1229C38.0354 10.0181 38.1505 9.88296 38.2317 9.72759C38.2587 9.67236 38.2709 9.61102 38.267 9.54964C38.265 9.5242 38.244 9.42815 38.2124 9.42257C37.4213 9.27964 37.1002 8.53124 37.0203 7.73596C36.9416 6.93668 37.0365 6.09295 36.9187 5.29924C36.7483 4.1512 36.3899 3.10508 36.1119 2.71673C34.8876 0.754546 33.5867 0.505843 32.5292 0.412079C31.5038 0.32103 30.2066 0.808146 29.5238 1.57855C29.2123 1.93561 28.986 2.35886 28.8622 2.81625C28.7384 3.27365 28.7202 3.75322 28.8091 4.21867L31.4492 10.1528Z" fill="#7A7473"/>
<path d="M31.1662 10.4358C31.7758 11.0966 32.7016 11.4448 33.5729 11.577C34.6135 11.7393 35.6783 11.6328 36.6661 11.2675C37.094 11.1123 37.4997 10.9018 37.8731 10.6415C38.2607 10.3635 38.799 9.93598 38.6419 9.38883C38.6089 9.25946 38.5274 9.14771 38.4143 9.07667C38.3095 9.03491 38.2018 9.00085 38.092 8.97476C37.9481 8.91382 37.8243 8.81356 37.7347 8.68546C37.6498 8.55898 37.5829 8.4213 37.536 8.27639C37.4792 8.10036 37.4405 7.91899 37.4205 7.7351C37.3634 7.17123 37.3951 6.60279 37.3776 6.0372C37.356 5.46603 37.2769 4.89849 37.1415 4.34316C37.0328 3.86634 36.8816 3.40022 36.6896 2.95042C36.5098 2.56743 36.2833 2.20821 36.0151 1.881C35.5734 1.26586 34.9841 0.771686 34.3014 0.443961C33.6187 0.116235 32.8645 -0.0345164 32.1083 0.00557852C31.1689 0.0574448 30.2704 0.407307 29.5434 1.00439C29.1757 1.32462 28.8797 1.71873 28.6746 2.16101C28.4695 2.6033 28.36 3.08385 28.353 3.57132C28.3502 3.82435 28.3737 4.07699 28.4232 4.32515C28.4523 4.42698 28.5201 4.51331 28.6122 4.56558C28.7043 4.61784 28.8133 4.63185 28.9156 4.60459C29.0167 4.57447 29.1023 4.50642 29.1543 4.41467C29.2064 4.32292 29.221 4.21458 29.195 4.11233C29.0904 3.54958 29.1693 2.9681 29.4202 2.45361C29.6711 1.93913 30.0806 1.51888 30.5885 1.25481C31.0706 0.986311 31.6078 0.831987 32.1589 0.803716C32.381 0.800674 32.6031 0.813763 32.8234 0.842879C32.9004 0.851169 32.8321 0.843737 32.8175 0.841736C32.8401 0.84488 32.8627 0.848025 32.8851 0.851455C32.9307 0.858602 32.9763 0.865748 33.0218 0.873896C33.1273 0.892953 33.2321 0.915299 33.3362 0.940931C33.4326 0.96523 33.5278 0.993054 33.6221 1.0244C33.665 1.0387 33.7068 1.05371 33.7487 1.06943C33.7732 1.07858 33.7973 1.08801 33.8215 1.09801C33.8588 1.11231 33.7912 1.08372 33.8539 1.11231C34.0755 1.21166 34.2869 1.33244 34.485 1.47293C34.9481 1.82353 35.3444 2.25439 35.6553 2.74503C35.9333 3.17166 36.1385 3.64155 36.2623 4.13548C36.461 4.82064 36.5687 5.52894 36.5827 6.24217C36.5928 6.99971 36.5285 7.80628 36.7798 8.53495C36.8767 8.83866 37.0393 9.11727 37.2562 9.35096C37.3616 9.45963 37.4819 9.55284 37.6135 9.62782C37.6971 9.67354 37.7842 9.71272 37.8739 9.74502C37.9034 9.75603 37.9331 9.76618 37.9632 9.77504C37.9877 9.78233 38.0982 9.83221 38.0281 9.78147L37.8852 9.63854C37.8833 9.63511 37.8602 9.57522 37.8748 9.61896C37.8921 9.67084 37.8629 9.56707 37.8682 9.5645C37.85 9.5735 37.8365 9.62167 37.8232 9.63982C37.7407 9.73831 37.6458 9.82571 37.5409 9.89982C37.3905 10.0123 37.2329 10.1149 37.0692 10.2068C36.668 10.4299 36.238 10.5965 35.7912 10.702C34.8133 10.9473 33.7848 10.9004 32.8332 10.5669C32.4162 10.4265 32.0391 10.1879 31.7335 9.87123C31.3833 9.49189 30.8187 10.059 31.1675 10.4372L31.1662 10.4358Z" fill="#211715"/>
<path d="M32.4658 17.0948C32.6263 16.9556 32.8148 16.8527 33.0186 16.7931C33.2225 16.7334 33.4368 16.7185 33.6469 16.7493C33.7621 16.7665 33.8748 16.7979 33.9822 16.8429C34.2043 15.6656 34.2902 14.4666 34.2384 13.2696C34.174 11.3187 33.6151 9.41602 32.6141 7.74025C32.1889 7.04869 31.6875 6.40696 31.1194 5.82709C30.8919 5.5944 30.5461 5.25422 30.3108 5.04725C29.6955 4.55033 29.0374 4.10872 28.3444 3.72755C27.7942 3.4213 27.2198 3.16067 26.627 2.94828C25.3188 2.49158 23.9418 2.26304 22.5562 2.27264C19.8284 2.27264 17.5125 3.07549 15.6589 4.42092C13.5068 5.98303 11.0698 8.76608 10.8748 13.2697C10.8605 13.8774 10.8849 14.4854 10.9477 15.09C11.0102 15.6669 11.1098 16.2392 11.2459 16.8033C11.3205 16.7792 11.397 16.7612 11.4746 16.7496C11.6847 16.7188 11.899 16.7338 12.1028 16.7934C12.3067 16.8531 12.4952 16.956 12.6556 17.0952C15.8064 16.372 19.4045 14.313 20.155 13.9664C22.9921 13.3232 25.7111 12.0272 27.3553 10.0046C27.7019 11.1989 28.2745 12.8122 28.6953 13.5172C29.2906 14.5148 31.0158 16.7596 32.466 17.0951" fill="#7A7473"/>
<path d="M27.0111 10.2557C27.2184 10.9499 27.4491 11.638 27.7115 12.314C27.9041 12.8528 28.1477 13.372 28.4392 13.8645C29.0507 14.8533 29.8061 15.7455 30.6805 16.5118C31.1691 16.9297 31.7246 17.3265 32.3593 17.4803C32.8595 17.6015 33.0739 16.8298 32.5721 16.7084C32.3543 16.6594 32.1465 16.5736 31.9575 16.4549C31.7328 16.3246 31.5198 16.1752 31.3207 16.0085C30.8697 15.626 30.4536 15.2043 30.0772 14.7482C29.7577 14.3716 29.4626 13.975 29.1937 13.5608C28.9346 13.1482 28.7168 12.7111 28.5435 12.2558C28.2549 11.5308 28.0055 10.7897 27.7823 10.0422C27.6353 9.54978 26.8625 9.75946 27.0104 10.255L27.0111 10.2557Z" fill="#211715"/>
<path d="M27.1007 9.68614C25.6308 11.5025 23.4571 12.6067 21.2532 13.265C20.95 13.3555 20.6447 13.438 20.3373 13.5126C20.1539 13.5519 19.9757 13.612 19.806 13.6918C19.5351 13.8268 19.2677 13.9686 18.9988 14.1071C18.1158 14.5624 17.2242 15.0015 16.3147 15.402C15.1029 15.9538 13.8422 16.3913 12.5491 16.7089C12.0474 16.8251 12.2598 17.5971 12.7618 17.4807C14.9896 16.9644 17.1014 15.9749 19.1291 14.9386C19.4364 14.7814 19.7421 14.6213 20.0495 14.4641C20.1414 14.409 20.2375 14.3612 20.3368 14.3212C20.3629 14.313 20.3157 14.3396 20.3191 14.339C20.3576 14.3322 20.3964 14.3212 20.4346 14.3122C20.5117 14.2939 20.5886 14.2751 20.6653 14.256C20.8187 14.2179 20.9717 14.1776 21.1243 14.1352C22.3337 13.8077 23.5007 13.34 24.6015 12.7416C25.7737 12.1164 26.8144 11.2712 27.6667 10.2522C27.7389 10.1756 27.7792 10.0744 27.7792 9.96915C27.7792 9.86392 27.7389 9.76267 27.6667 9.68614C27.5913 9.61177 27.4896 9.57008 27.3837 9.57008C27.2778 9.57008 27.1761 9.61177 27.1007 9.68614Z" fill="#211715"/>
<path d="M32.7489 17.3779C32.9169 17.2395 33.1232 17.1558 33.3402 17.1379C33.5572 17.12 33.7744 17.1688 33.9628 17.2779C34.4375 17.5559 34.4685 18.1197 34.4758 18.6173C34.4924 19.7345 34.1715 20.9534 33.4764 21.8456C33.1232 22.3212 32.6017 22.644 32.0185 22.7481C31.9166 22.777 31.8302 22.8448 31.7779 22.9369C31.7256 23.029 31.7117 23.138 31.7391 23.2403C31.7693 23.3413 31.8374 23.4268 31.9291 23.4789C32.0208 23.5309 32.1291 23.5456 32.2313 23.5199C33.6943 23.2746 34.568 21.9022 34.9845 20.5898C35.203 19.9019 35.3 19.1812 35.2712 18.4601C35.2394 17.7122 35.0524 16.9901 34.3662 16.5876C34.0241 16.3931 33.6297 16.3101 33.2382 16.3505C32.8467 16.3908 32.4776 16.5524 32.1823 16.8126C32.1081 16.8881 32.0666 16.9897 32.0666 17.0956C32.0666 17.2014 32.1081 17.303 32.1823 17.3785C32.2583 17.4517 32.3598 17.4926 32.4653 17.4926C32.5709 17.4926 32.6723 17.4517 32.7483 17.3785L32.7489 17.3779Z" fill="#211715"/>
<path d="M31.7101 22.0352C31.6853 22.4742 31.603 22.908 31.4654 23.3255C31.4183 23.4813 31.3667 23.6357 31.315 23.79C31.3023 23.8281 31.2898 23.8661 31.2755 23.9037C31.2692 23.9204 31.2612 23.9368 31.2557 23.9538C31.2328 24.0212 31.2998 23.8562 31.2614 23.9403C31.0654 24.3616 30.8418 24.7695 30.5919 25.1613C29.8779 26.2939 29.0296 27.3491 27.9539 28.1904C27.3856 28.6541 26.7227 28.9879 26.0117 29.1683C25.5098 29.2827 25.7222 30.0545 26.2244 29.9402C27.6954 29.6045 28.9269 28.5394 29.8955 27.4305C30.7119 26.5269 31.3943 25.5108 31.9217 24.4132C32.2699 23.6661 32.4698 22.8585 32.5105 22.0352C32.5262 21.5207 31.7258 21.5207 31.7101 22.0352Z" fill="#211715"/>
<path d="M12.9383 16.8121C12.6776 16.5814 12.3582 16.4275 12.0153 16.3674C11.6725 16.3074 11.3197 16.3435 10.9962 16.4719C10.6742 16.6012 10.3963 16.8206 10.1958 17.1038C9.99553 17.4272 9.8826 17.797 9.86806 18.1771C9.73227 19.5684 10.111 21.1228 10.9529 22.2507C11.4286 22.8879 12.0901 23.387 12.8887 23.5209C12.991 23.546 13.0991 23.531 13.1907 23.4789C13.2823 23.4269 13.3506 23.3417 13.3813 23.2409C13.4087 23.1386 13.3947 23.0296 13.3424 22.9375C13.2901 22.8454 13.2037 22.7776 13.1018 22.7486C11.9809 22.5607 11.3221 21.5616 10.9682 20.5582C10.7742 20.0155 10.6658 19.446 10.6469 18.87C10.6326 18.3798 10.6076 17.7204 11.0201 17.3738C11.2114 17.2185 11.4505 17.1341 11.6969 17.1349C11.9433 17.1357 12.1818 17.2217 12.3721 17.3782C12.4484 17.4509 12.5497 17.4915 12.6551 17.4915C12.7605 17.4915 12.8618 17.4509 12.9381 17.3782C13.0123 17.3027 13.0539 17.2011 13.0539 17.0953C13.0539 16.9894 13.0123 16.8878 12.9381 16.8124L12.9383 16.8121Z" fill="#211715"/>
<path d="M12.6693 21.8818C12.9025 23.3552 13.4122 24.7713 14.1715 26.0554C15.0317 27.4607 16.2805 28.731 17.7518 29.4931C18.5181 29.8911 19.3529 30.1401 20.212 30.227C20.3179 30.2264 20.4193 30.184 20.4942 30.1091C20.5692 30.0342 20.6115 29.9328 20.6122 29.8268C20.6099 29.7214 20.567 29.6209 20.4925 29.5464C20.4179 29.4718 20.3174 29.4289 20.212 29.4266C18.8195 29.2837 17.5416 28.5833 16.5179 27.6435C15.3623 26.5822 14.4881 25.2508 13.9737 23.7685C13.7387 23.0843 13.5604 22.3819 13.4406 21.6685C13.4116 21.5666 13.3437 21.4802 13.2516 21.4279C13.1595 21.3756 13.0505 21.3616 12.9481 21.3889C12.8471 21.4192 12.7617 21.4872 12.7096 21.5789C12.6575 21.6707 12.6429 21.7789 12.6687 21.8812L12.6693 21.8818Z" fill="#211715"/>
<path d="M15.2263 32.6189C14.0286 33.0392 12.8866 33.6095 11.7387 34.1483C10.5682 34.6867 9.4321 35.2971 8.33692 35.9758C7.62105 36.4175 6.93701 36.9089 6.28983 37.4463C5.45409 38.1802 4.75177 39.0533 4.21402 40.0269C3.99519 40.4077 3.79308 40.7981 3.57968 41.1818C3.19376 41.8755 2.89603 42.6129 2.55242 43.3274C2.50161 43.4197 2.48818 43.528 2.51492 43.6299C2.54165 43.7318 2.6065 43.8195 2.69607 43.875C2.78786 43.9277 2.89667 43.9422 2.99909 43.9155C3.1015 43.8888 3.18932 43.8229 3.24364 43.732C3.53952 43.1167 3.80108 42.4848 4.11468 41.8781C4.30749 41.5049 4.51489 41.1375 4.71671 40.7686C5.23956 39.811 5.85489 38.9105 6.6696 38.1751C6.77895 38.0765 6.89143 37.9813 7.00564 37.8882C7.06538 37.8396 7.1257 37.7915 7.18659 37.7439C7.20374 37.7302 7.22099 37.7168 7.23833 37.7034C7.17716 37.7503 7.22633 37.7127 7.23833 37.7034C7.27592 37.6748 7.31337 37.6462 7.35111 37.6177C7.70115 37.3551 8.06134 37.1061 8.42782 36.8673C9.453 36.2036 10.5205 35.6076 11.6234 35.0832C12.8736 34.4841 14.1287 33.8504 15.4385 33.3907C15.5394 33.3603 15.6248 33.2922 15.6768 33.2005C15.7288 33.1089 15.7436 33.0007 15.718 32.8985C15.6889 32.7966 15.6211 32.7103 15.529 32.658C15.4369 32.6057 15.328 32.5917 15.2257 32.6189H15.2263Z" fill="#211715"/>
<path d="M29.5596 33.3907C30.71 33.7945 31.8037 34.3466 32.9067 34.8629C34.0523 35.3905 35.1643 35.9882 36.2363 36.6527C36.6337 36.9026 37.0243 37.1633 37.4047 37.4389C37.4816 37.4945 37.5578 37.5507 37.6334 37.6074L37.7334 37.6827L37.7883 37.7246C37.7241 37.6754 37.7866 37.7234 37.7997 37.7336C37.9189 37.8275 38.0373 37.9224 38.1531 38.0207C38.9454 38.7166 39.6098 39.5457 40.1162 40.4706C40.3374 40.858 40.546 41.2532 40.7603 41.6444C41.1309 42.321 41.4214 43.0373 41.7555 43.7319C41.8099 43.8227 41.8977 43.8886 42 43.9153C42.1024 43.942 42.2112 43.9275 42.303 43.8748C42.393 43.8197 42.4581 43.732 42.4849 43.6299C42.5117 43.5279 42.498 43.4194 42.4466 43.3273C41.4768 41.3106 40.5785 39.1133 38.8719 37.5872C38.2825 37.0747 37.6553 36.6074 36.9956 36.1892C35.9446 35.5075 34.8491 34.8971 33.7164 34.3619C32.423 33.7456 31.1266 33.0938 29.7728 32.6182C29.7221 32.6042 29.6691 32.6003 29.617 32.6068C29.5648 32.6133 29.5144 32.63 29.4687 32.656C29.423 32.682 29.3829 32.7167 29.3506 32.7581C29.3183 32.7996 29.2945 32.8471 29.2805 32.8977C29.2665 32.9484 29.2627 33.0013 29.2692 33.0535C29.2757 33.1057 29.2924 33.1561 29.3183 33.2018C29.3443 33.2475 29.379 33.2876 29.4205 33.3199C29.462 33.3522 29.5094 33.376 29.5601 33.39L29.5596 33.3907Z" fill="#211715"/>
<path d="M17.7563 29.2794C17.7307 29.7152 17.6818 30.1494 17.6098 30.5801C17.5622 30.8659 17.5306 31.1604 17.4633 31.4431C17.449 31.504 17.4311 31.5637 17.4113 31.623C17.3738 31.7354 17.4471 31.5583 17.3954 31.6646C17.3845 31.6871 17.3733 31.7091 17.3611 31.7308C17.3428 31.7638 17.3227 31.7959 17.3009 31.8267C17.3111 31.8124 17.3438 31.7771 17.2912 31.8373C17.2484 31.8868 17.2005 31.9316 17.1483 31.9709C16.9903 32.0672 16.8238 32.1486 16.6507 32.2139C15.8932 32.5577 15.1404 32.9143 14.3841 33.2623C14.1817 33.3555 13.9791 33.4481 13.7763 33.5401C13.7085 33.5707 13.6405 33.601 13.5724 33.6311C13.5369 33.647 13.4322 33.6954 13.5878 33.6253C13.5752 33.631 13.5622 33.6358 13.5494 33.6404C13.4485 33.6709 13.3632 33.739 13.3111 33.8306C13.2591 33.9222 13.2443 34.0304 13.2698 34.1327C13.2988 34.2345 13.3666 34.3209 13.4587 34.3732C13.5508 34.4255 13.6597 34.4395 13.7621 34.4122C14.0565 34.308 14.3408 34.1588 14.6242 34.0289C15.0881 33.8159 15.5514 33.6018 16.0141 33.3866C16.3553 33.2285 16.6957 33.0688 17.0378 32.9129C17.09 32.889 17.1841 32.8193 17.0288 32.9142C17.1937 32.8141 17.3891 32.7741 17.5522 32.6619C17.8368 32.4702 18.0531 32.1931 18.1702 31.8706C18.2626 31.5611 18.3259 31.2436 18.3593 30.9224C18.4557 30.3786 18.5215 29.8298 18.5564 29.2787C18.5564 29.1725 18.5143 29.0707 18.4392 28.9957C18.3642 28.9206 18.2624 28.8784 18.1562 28.8784C18.0501 28.8784 17.9483 28.9206 17.8732 28.9957C17.7982 29.0707 17.756 29.1725 17.756 29.2787L17.7563 29.2794Z" fill="#211715"/>
<path d="M26.4455 29.317C26.4769 29.8104 26.5341 30.3018 26.617 30.7892C26.6667 31.0886 26.6974 31.3976 26.7731 31.6918C26.8464 32.0029 27.0102 32.2854 27.2437 32.5037C27.3833 32.628 27.5408 32.7304 27.7111 32.8074C27.7996 32.8372 27.886 32.8725 27.97 32.9133C27.8511 32.8384 27.8652 32.8673 27.9108 32.889C28.6734 33.2518 29.4436 33.5999 30.2107 33.953C30.5481 34.1082 30.8864 34.2877 31.237 34.4119C31.3393 34.4391 31.4483 34.4251 31.5403 34.3728C31.6324 34.3205 31.7003 34.2342 31.7294 34.1324C31.7555 34.0301 31.7409 33.9217 31.6888 33.8299C31.6367 33.7381 31.551 33.6701 31.4498 33.6401C31.3525 33.6057 31.5442 33.683 31.4533 33.6424C31.3935 33.6158 31.3336 33.5895 31.2739 33.5628C31.1085 33.4885 30.9434 33.4132 30.7786 33.3371C30.3361 33.1341 29.8941 32.9299 29.4526 32.7245C29.1079 32.5645 28.7635 32.4039 28.4182 32.2452C28.3182 32.1992 28.2168 32.1586 28.1152 32.1166C27.9853 32.0655 27.866 31.9905 27.7636 31.8956C27.7397 31.872 27.7168 31.8476 27.6953 31.8219C27.6498 31.7675 27.7391 31.8948 27.677 31.7947C27.6604 31.7681 27.6441 31.7417 27.6292 31.7139C27.6211 31.6997 27.5721 31.5839 27.6006 31.6576C27.5133 31.37 27.4538 31.0746 27.423 30.7756C27.3376 30.2929 27.2784 29.8059 27.2457 29.3168C27.2434 29.2114 27.2005 29.111 27.1259 29.0364C27.0514 28.9619 26.9509 28.9189 26.8455 28.9166C26.7397 28.9175 26.6384 28.96 26.5636 29.0349C26.4887 29.1097 26.4462 29.211 26.4453 29.3168L26.4455 29.317Z" fill="#211715"/>
<path d="M13.1852 34.1914C15.3025 35.6626 17.7408 36.6065 20.2969 36.9444C22.8791 37.2932 25.5072 37.0234 27.9646 36.1572C29.3315 35.6777 30.6264 35.0137 31.8135 34.1837C31.903 34.1281 31.9677 34.0403 31.9943 33.9384C32.0209 33.8365 32.0073 33.7283 31.9565 33.6361C31.9022 33.5452 31.8143 33.4793 31.7119 33.4526C31.6095 33.4259 31.5007 33.4404 31.4089 33.4932C29.3705 34.9194 27.0191 35.8348 24.553 36.162C22.0915 36.484 19.5887 36.2192 17.2491 35.3893C15.9491 34.9289 14.718 34.2932 13.59 33.4996C13.4982 33.4469 13.3894 33.4324 13.287 33.4591C13.1846 33.4858 13.0968 33.5517 13.0424 33.6425C12.991 33.7346 12.9771 33.843 13.0037 33.9451C13.0304 34.0471 13.0955 34.1349 13.1854 34.1901L13.1852 34.1914Z" fill="#211715"/>
<path d="M33.1206 40.148C34.2087 39.6416 38.0602 36.935 37.9692 36.7963C37.6451 36.3034 34.2538 34.8227 31.8864 33.6963C30.5871 33.0781 29.6752 32.5122 29.4458 32.4014C27.8272 35.057 25.0998 39.7145 23.4478 42.447C25.2177 42.8101 28.18 42.4473 33.1206 40.148Z" fill="#E99980"/>
<path d="M12.0085 40.148C10.9205 39.6416 7.06885 36.935 7.16004 36.7963C7.48393 36.3034 10.8753 34.8227 13.2428 33.6963C14.542 33.0781 15.454 32.5122 15.6834 32.4014C17.302 35.057 20.0294 39.7145 21.6815 42.447C19.9109 42.8101 16.9487 42.4473 12.0085 40.148Z" fill="#E99980"/>
<path d="M33.3218 40.4929C34.1434 40.107 34.9049 39.556 35.653 39.0475C36.4452 38.5091 37.2447 37.9643 37.9829 37.3532C38.2301 37.1487 38.5269 36.8687 38.2687 36.5338C38.0375 36.2346 37.6457 36.0425 37.3215 35.8634C36.1282 35.2041 34.8741 34.6506 33.6384 34.0768C32.8408 33.7061 32.0388 33.3425 31.2579 32.9379C30.7147 32.6566 30.1953 32.3248 29.647 32.0556C29.5549 32.0044 29.4466 31.9908 29.3446 32.0174C29.2426 32.044 29.1548 32.1088 29.0994 32.1985C27.4834 34.8506 25.9159 37.5322 24.3255 40.2002C23.919 40.8825 23.5107 41.5638 23.1007 42.2441C23.0704 42.2972 23.0525 42.3565 23.0485 42.4174C23.0444 42.4784 23.0543 42.5395 23.0773 42.5962C23.1004 42.6528 23.136 42.7034 23.1814 42.7443C23.2269 42.7851 23.2811 42.8151 23.3398 42.832C24.2861 43.0011 25.2542 43.0089 26.2032 42.8553C27.5917 42.6417 28.9533 42.2794 30.2643 41.7747C31.3017 41.3935 32.3191 40.958 33.3211 40.4925C33.412 40.4382 33.4779 40.3504 33.5046 40.248C33.5314 40.1456 33.5168 40.0368 33.464 39.945C33.4087 39.8553 33.3209 39.7903 33.2189 39.7637C33.1169 39.7371 33.0086 39.7508 32.9165 39.8021C31.365 40.5441 29.7553 41.1576 28.1035 41.6363C27.4951 41.808 26.8774 41.9447 26.2534 42.0457C26.1784 42.0575 26.1032 42.0687 26.0279 42.0792C26.0137 42.0813 25.9486 42.0896 26.0239 42.0792C25.9876 42.0837 25.9513 42.0884 25.915 42.0934C25.7865 42.109 25.6578 42.1223 25.5291 42.1335C25.292 42.1536 25.054 42.1658 24.816 42.1679C24.578 42.1701 24.3363 42.1618 24.0974 42.1405C24.0445 42.1358 23.9916 42.1304 23.9388 42.1243C23.913 42.1215 23.8872 42.118 23.8615 42.115C23.7816 42.106 23.9514 42.1293 23.8667 42.115C23.762 42.0976 23.6575 42.0814 23.5535 42.0604L23.7928 42.6483C25.4066 39.978 26.982 37.2848 28.5832 34.6069C28.9834 33.9374 29.3859 33.2693 29.7907 32.6027L29.2432 32.7456C29.669 32.9549 30.0732 33.213 30.4916 33.4371C31.1777 33.8046 31.8816 34.1364 32.587 34.4654C33.8428 35.0514 35.109 35.6194 36.3434 36.2502C36.7558 36.452 37.1549 36.6799 37.5382 36.9326C37.6228 36.9906 37.4916 36.8867 37.5506 36.9411C37.5705 36.9596 37.5924 36.9757 37.6121 36.9946C37.6145 36.997 37.6638 37.0482 37.6634 37.0485C37.6348 37.0645 37.5997 36.9566 37.6229 36.997C37.5914 36.9394 37.5743 36.8749 37.5732 36.8091C37.5721 36.7434 37.587 36.6784 37.6167 36.6197C37.6603 36.5456 37.6795 36.5518 37.6177 36.61C37.5811 36.6443 37.5446 36.6786 37.5066 36.7114C37.4553 36.756 37.4027 36.7992 37.3494 36.8419C37.3208 36.8645 37.2933 36.8868 37.2652 36.9091C37.2432 36.9266 37.1211 37.0212 37.2112 36.952C37.0454 37.0795 36.8779 37.2049 36.7089 37.3282C36.2947 37.6316 35.8754 37.9281 35.4511 38.2177C34.976 38.5436 34.4966 38.8634 34.0092 39.1709C33.6587 39.4032 33.2942 39.6136 32.9179 39.8011C32.827 39.8554 32.7611 39.9432 32.7343 40.0456C32.7076 40.1481 32.7222 40.2569 32.775 40.3487C32.83 40.4385 32.9175 40.5037 33.0194 40.5306C33.1213 40.5574 33.2296 40.5439 33.3218 40.4929Z" fill="#211715"/>
<path d="M24.8247 41.1007C26.6805 40.8424 28.4709 40.1893 30.1727 39.4239C31.7177 38.7382 33.199 37.9169 34.599 36.9696C35.1237 36.6303 35.6156 36.2427 36.0682 35.8119C36.432 35.4462 35.8663 34.8801 35.5022 35.2458C35.3449 35.4015 35.179 35.5483 35.0055 35.6857C34.9579 35.7242 34.9095 35.7624 34.8604 35.8C34.916 35.7571 34.864 35.7971 34.8389 35.8161C34.8077 35.8396 34.7765 35.8632 34.7454 35.8865C34.6215 35.9793 34.4957 36.07 34.368 36.1588C33.7571 36.5876 33.1218 36.9803 32.4749 37.3515C30.9115 38.2614 29.263 39.0167 27.553 39.6067C26.5973 39.9388 25.6126 40.1807 24.6119 40.3293C24.3975 40.3591 24.2804 40.6327 24.3323 40.8215C24.3629 40.9224 24.431 41.0076 24.5227 41.0596C24.6143 41.1117 24.7224 41.1265 24.8247 41.1011V41.1007Z" fill="#211715"/>
<path d="M12.2104 39.8024C11.4252 39.4336 10.6968 38.9101 9.98068 38.4255C9.55321 38.1363 9.12966 37.8413 8.71 37.5403C8.52333 37.406 8.33781 37.2701 8.15342 37.1326C8.07443 37.0734 7.99572 37.0136 7.9173 36.9533C7.99134 37.0105 7.91287 36.9496 7.88285 36.926C7.84817 36.8987 7.81353 36.8711 7.77894 36.8433C7.68675 36.7688 7.59799 36.6916 7.51094 36.6113C7.45548 36.56 7.45848 36.5317 7.51351 36.6234C7.54436 36.7433 7.54397 36.8691 7.51237 36.9888C7.4532 37.0993 7.47363 37.0371 7.51666 36.9959C7.53624 36.9771 7.55797 36.9606 7.57812 36.9425C7.64058 36.886 7.50165 36.9949 7.59055 36.9339C7.66688 36.8816 7.74321 36.8298 7.82196 36.7809C8.01464 36.6617 8.21331 36.5523 8.41328 36.4455C9.61391 35.8044 10.861 35.2486 12.0948 34.6748C12.8621 34.3175 13.6322 33.9659 14.3817 33.5734C14.8876 33.3088 15.3731 32.9985 15.8852 32.7469L15.3377 32.604C16.9537 35.2561 18.5212 37.9377 20.1109 40.6057C20.5174 41.288 20.9257 41.9694 21.3357 42.6496L21.5748 42.0617C21.4873 42.0795 21.3995 42.0952 21.3114 42.1089C21.2865 42.1128 21.2615 42.1161 21.2366 42.1199C21.2444 42.1186 21.3367 42.1079 21.2669 42.1158C21.2149 42.1216 21.163 42.1284 21.1109 42.1336C20.9058 42.1545 20.6996 42.1654 20.4935 42.1682C20.2627 42.1714 20.0319 42.1644 19.8015 42.1494C19.6762 42.1412 19.5512 42.1307 19.4263 42.1179C19.3671 42.1119 19.308 42.1054 19.249 42.0985C19.2129 42.0942 19.1776 42.0898 19.1407 42.0852C19.1271 42.0845 19.1136 42.0827 19.1002 42.0799C17.7433 41.8683 16.4125 41.5144 15.1297 41.0242C14.139 40.6616 13.1671 40.2471 12.2104 39.8024C12.1182 39.7517 12.01 39.7383 11.9082 39.7649C11.8064 39.7915 11.7186 39.856 11.6629 39.9453C11.6102 40.0372 11.5957 40.1461 11.6226 40.2485C11.6494 40.3509 11.7155 40.4386 11.8065 40.4928C13.4339 41.2744 15.1235 41.9191 16.8579 42.4204C17.9906 42.7546 19.1624 42.9387 20.343 42.9679C20.828 42.9722 21.3121 42.9267 21.7878 42.8323C21.8466 42.8155 21.9007 42.7855 21.9462 42.7446C21.9917 42.7038 22.0273 42.6531 22.0503 42.5965C22.0734 42.5399 22.0832 42.4788 22.0792 42.4178C22.0751 42.3568 22.0572 42.2975 22.0269 42.2444C20.4131 39.5741 18.8377 36.8809 17.2365 34.203C16.8363 33.5335 16.4338 32.8654 16.0289 32.1988C15.9734 32.1092 15.8856 32.0445 15.7837 32.0178C15.6817 31.9912 15.5735 32.0049 15.4813 32.0559C15.0302 32.2774 14.6021 32.5508 14.1583 32.7871C13.4479 33.1652 12.7188 33.5049 11.9896 33.8448C10.7055 34.4431 9.40837 35.021 8.15285 35.6785C7.74224 35.8713 7.35456 36.1096 6.9971 36.3889C6.84159 36.5222 6.71266 36.7005 6.77469 36.9177C6.82075 37.0427 6.90074 37.1522 7.00567 37.2342C7.65645 37.8255 8.41742 38.3195 9.13923 38.8176C9.63821 39.1619 10.1422 39.4998 10.6543 39.8246C11.024 40.0714 11.4089 40.2947 11.8066 40.4932C11.8989 40.544 12.0071 40.5574 12.1089 40.5309C12.2108 40.5043 12.2986 40.4396 12.3542 40.3503C12.407 40.2584 12.4215 40.1494 12.3946 40.0469C12.3677 39.9444 12.3015 39.8566 12.2104 39.8024Z" fill="#211715"/>
<path d="M20.5165 40.3288C18.7221 40.0791 16.9805 39.4636 15.3349 38.7217C13.811 38.043 12.3492 37.2329 10.9659 36.3005C10.8167 36.1989 10.669 36.0951 10.5228 35.9891C10.4579 35.9419 10.3934 35.8943 10.3293 35.8461C10.2987 35.823 10.2681 35.7998 10.2376 35.7765C10.2994 35.8237 10.2291 35.7697 10.2063 35.7517C10.0029 35.5948 9.8092 35.4258 9.62618 35.2455C9.26241 34.8799 8.69626 35.4456 9.06016 35.8115C9.45179 36.1865 9.87522 36.5267 10.3257 36.8284C10.9393 37.2603 11.5782 37.6574 12.2287 38.0306C13.8439 38.969 15.5459 39.7493 17.3111 40.3604C18.2831 40.7011 19.2851 40.9489 20.3038 41.1003C20.406 41.1248 20.5137 41.1096 20.6051 41.0577C20.6965 41.0058 20.7648 40.9211 20.7961 40.8208C20.8476 40.6337 20.7321 40.3585 20.5167 40.3285L20.5165 40.3288Z" fill="#211715"/>
<path d="M20.4668 42.8876C20.4668 43.4583 20.4938 44.0288 20.4944 44.5994C20.4944 44.7055 20.5365 44.8073 20.6116 44.8824C20.6867 44.9574 20.7885 44.9996 20.8946 44.9996C21.0007 44.9996 21.1025 44.9574 21.1776 44.8824C21.2526 44.8073 21.2948 44.7055 21.2948 44.5994C21.2948 44.0288 21.2677 43.4583 21.2672 42.8876C21.2672 42.7815 21.2251 42.6797 21.15 42.6046C21.0749 42.5296 20.9732 42.4874 20.867 42.4874C20.7609 42.4874 20.6591 42.5296 20.584 42.6046C20.509 42.6797 20.4668 42.7815 20.4668 42.8876Z" fill="#211715"/>
<path d="M24.1394 42.8876C24.1394 43.4583 24.1124 44.0288 24.1118 44.5994C24.1118 44.7055 24.154 44.8073 24.229 44.8824C24.3041 44.9574 24.4059 44.9996 24.512 44.9996C24.6182 44.9996 24.72 44.9574 24.795 44.8824C24.8701 44.8073 24.9122 44.7055 24.9122 44.5994C24.9122 44.0288 24.9394 43.4583 24.9398 42.8876C24.9398 42.7815 24.8977 42.6797 24.8226 42.6046C24.7476 42.5296 24.6458 42.4874 24.5396 42.4874C24.4335 42.4874 24.3317 42.5296 24.2566 42.6046C24.1816 42.6797 24.1394 42.7815 24.1394 42.8876Z" fill="#211715"/>
<path d="M20.2246 40.305C20.3042 41.0275 20.5569 42.2631 20.6563 42.9712C21.3307 43.2394 22.0355 43.4235 22.7548 43.5197C23.4023 43.4283 24.0305 43.2322 24.6151 42.9392C24.8269 42.0742 24.9663 41.1931 25.0319 40.305C24.8781 40.2642 20.6118 40.305 20.2246 40.305Z" fill="#E99980"/>
<path d="M19.8242 40.3049C19.9028 40.9989 20.0372 41.6857 20.1564 42.3735C20.182 42.5215 20.2073 42.6699 20.231 42.8184C20.2697 43.0614 20.2906 43.2489 20.5497 43.3571C20.918 43.5081 21.2977 43.6299 21.6851 43.7213C22.0684 43.8144 22.5368 43.9606 22.9286 43.8928C23.2849 43.8341 23.6363 43.7485 23.9797 43.6366C24.271 43.5506 24.5517 43.4323 24.8167 43.2841C25.0611 43.1333 25.0893 42.6902 25.1407 42.4296C25.2912 41.7295 25.3885 41.019 25.4318 40.3042C25.4312 40.2167 25.4023 40.1318 25.3493 40.0622C25.2963 39.9926 25.2221 39.9421 25.1379 39.9183C24.9421 39.8881 24.7438 39.8783 24.546 39.8889C24.1887 39.8854 23.8313 39.8859 23.474 39.8864C22.6392 39.888 21.8043 39.8922 20.9694 39.8993C20.7211 39.901 20.4727 39.9039 20.2243 39.904C19.7097 39.904 19.7084 40.7044 20.2243 40.7044C21.6143 40.7036 23.0042 40.6793 24.3941 40.6881C24.537 40.689 24.6799 40.6901 24.8229 40.6934C24.8685 40.6946 24.9139 40.6967 24.9595 40.6979C25.057 40.7004 24.9595 40.6979 24.9255 40.6901L24.6318 40.3042C24.5918 41.1592 24.4568 42.007 24.2293 42.8321L24.4129 42.594C24.1844 42.7124 23.946 42.8107 23.7004 42.8876C23.3555 42.993 23.004 43.0754 22.6481 43.1341H22.861C22.141 43.0413 21.4358 42.857 20.7624 42.5857L21.042 42.8651C20.98 42.4302 20.8991 41.998 20.8236 41.5653C20.7497 41.144 20.6678 40.687 20.6246 40.3054C20.6216 40.2002 20.5785 40.1001 20.5041 40.0257C20.4297 39.9513 20.3296 39.9082 20.2244 39.9051C20.1186 39.9058 20.0172 39.9481 19.9423 40.023C19.8674 40.0978 19.825 40.1991 19.8242 40.3049Z" fill="#211715"/>
<path d="M17.4473 12.2792C17.3811 12.0924 17.3437 11.8857 17.4624 11.7361C17.5437 11.6517 17.6464 11.5909 17.7595 11.5603L18.4081 11.321C18.5573 11.2657 18.7202 11.2594 18.8733 11.3029C19.0264 11.3463 19.1616 11.4374 19.2595 11.5628C19.8493 12.3227 20.367 13.1358 20.8061 13.9916C20.8927 14.1618 20.9105 14.3589 20.856 14.542C20.8015 14.7251 20.6787 14.8802 20.5131 14.9754C20.1958 15.1562 19.8653 15.3126 19.5244 15.4432C19.3422 15.5111 19.1407 15.5052 18.9628 15.4269C18.7848 15.3485 18.6444 15.2039 18.5715 15.0237L17.4877 12.3837C17.4737 12.3504 17.46 12.3152 17.4473 12.2792Z" fill="#211715"/>
<path d="M34.4248 16.6231C34.9026 13.6943 34.6556 10.6095 33.2107 7.97165C32.5218 6.72006 31.6057 5.60782 30.5093 4.69192C28.7827 3.27541 26.7095 2.34516 24.5035 1.9971C22.2975 1.64904 20.0386 1.89578 17.9598 2.71187C15.8704 3.55291 14.0548 4.95627 12.7144 6.7663C11.1852 8.84727 10.3964 11.3801 10.4737 13.9614C10.4854 14.3383 10.513 14.7145 10.5474 15.0899C10.5501 15.1951 10.5932 15.2954 10.6677 15.3698C10.7421 15.4443 10.8424 15.4874 10.9476 15.4901C11.0535 15.4893 11.1549 15.4469 11.2298 15.372C11.3047 15.2971 11.3471 15.1958 11.3479 15.0899C11.2014 13.7353 11.2819 12.3658 11.586 11.0377C11.8553 9.92101 12.3047 8.85562 12.9164 7.88332C14.0019 6.17039 15.5289 4.78161 17.3369 3.86305C19.7532 2.63568 22.6714 2.36368 25.2997 2.97615C27.9723 3.59484 30.3259 5.17041 31.9165 7.4055C33.5673 9.76646 34.0627 12.6723 33.7746 15.5009C33.7436 15.8054 33.7021 16.1081 33.6528 16.4101C33.6278 16.5124 33.6428 16.6203 33.6948 16.7118C33.7468 16.8033 33.8318 16.8715 33.9324 16.9024C34.0347 16.9298 34.1437 16.9159 34.2358 16.8636C34.3279 16.8113 34.3958 16.7248 34.4247 16.623L34.4248 16.6231Z" fill="#211715"/>
<path d="M20.8622 25.0937C21.436 25.3898 22.0749 25.5372 22.7203 25.5225C23.3765 25.5182 24.0496 25.3939 24.577 24.983C24.7477 24.8499 24.7165 24.5564 24.577 24.4169C24.5007 24.3443 24.3994 24.3037 24.294 24.3037C24.1887 24.3037 24.0873 24.3443 24.011 24.4169C24.1264 24.327 24.0162 24.4101 23.9867 24.429C23.9486 24.4535 23.9093 24.4763 23.8688 24.4973C23.8454 24.5096 23.7144 24.5677 23.8029 24.5319C23.7495 24.5536 23.6952 24.5733 23.6403 24.5909C23.3227 24.6889 22.9911 24.7332 22.659 24.7221C22.3422 24.7278 22.0264 24.6853 21.7224 24.5959C21.6628 24.5782 21.6047 24.5569 21.546 24.5366C21.5269 24.53 21.5081 24.5216 21.4888 24.5146C21.5863 24.5507 21.4998 24.5194 21.4815 24.5109C21.4085 24.4767 21.3368 24.4407 21.2654 24.4029C21.1733 24.3516 21.065 24.3378 20.9629 24.3644C20.8609 24.3911 20.7731 24.4561 20.7179 24.5459C20.6654 24.6377 20.651 24.7465 20.6777 24.8488C20.7044 24.9511 20.7701 25.039 20.8608 25.0934L20.8622 25.0937Z" fill="#211715"/>
<path d="M22.5607 20.6592C22.6485 20.9762 22.7188 21.2978 22.7713 21.6225L22.757 21.5161C22.7632 21.5601 22.7644 21.6047 22.7605 21.649L22.7748 21.5427C22.772 21.563 22.7672 21.583 22.7605 21.6024L22.8008 21.5068C22.795 21.5203 22.788 21.5331 22.7798 21.5453L22.8423 21.4644C22.833 21.4758 22.8224 21.4862 22.8108 21.4954L22.8919 21.4328C22.8674 21.448 22.8419 21.4615 22.8156 21.4731L22.9112 21.4328C22.87 21.4505 22.8268 21.4631 22.7825 21.4704L22.889 21.4561C22.8489 21.4608 22.8084 21.4608 22.7682 21.4561L22.8746 21.4704C22.8291 21.4641 22.7844 21.4529 22.7389 21.4468C22.6346 21.4226 22.525 21.4369 22.4305 21.4872C22.3389 21.5409 22.2724 21.6288 22.2456 21.7314C22.2188 21.8341 22.2339 21.9433 22.2876 22.0348C22.3129 22.0801 22.3471 22.1197 22.3882 22.1513C22.4293 22.1829 22.4765 22.2058 22.5267 22.2186C22.622 22.2315 22.7145 22.2561 22.8113 22.2602C22.9533 22.2614 23.0935 22.2286 23.2202 22.1646C23.2989 22.13 23.3687 22.078 23.4244 22.0125C23.4801 21.9471 23.5203 21.8699 23.5419 21.7867C23.5703 21.6487 23.5687 21.5063 23.5374 21.369C23.4849 21.0587 23.4132 20.7511 23.3334 20.4467C23.3194 20.396 23.2956 20.3486 23.2633 20.3071C23.231 20.2656 23.1908 20.2309 23.1451 20.205C23.0994 20.179 23.049 20.1623 22.9969 20.1558C22.9447 20.1494 22.8918 20.1532 22.8411 20.1672C22.7904 20.1812 22.743 20.205 22.7015 20.2373C22.66 20.2696 22.6253 20.3098 22.5994 20.3555C22.5734 20.4012 22.5567 20.4516 22.5502 20.5037C22.5437 20.5559 22.5476 20.6088 22.5616 20.6595L22.5607 20.6592Z" fill="#211715"/>
<path d="M17.3768 17.9561C17.2159 18.4788 17.3208 19.6814 18.3112 19.7838C19.6201 19.7759 19.6898 18.322 19.2491 17.6384C18.8883 17.0786 17.8275 16.8458 17.3768 17.9561Z" fill="#211715"/>
<path d="M27.8592 17.9561C28.0202 18.4788 27.9153 19.6814 26.9249 19.7838C25.6159 19.7759 25.5462 18.3219 25.9868 17.6384C26.3476 17.0786 27.4084 16.8458 27.8592 17.9561Z" fill="#211715"/>
</g>
<defs>
<clipPath id="clip0_20_195">
<rect width="45" height="45" fill="white"/>
</clipPath>
</defs>
</svg>
