<svg width="50" height="50" viewBox="0 0 50 50" fill="none" xmlns="http://www.w3.org/2000/svg">
<path d="M31.4808 24.3969C31.3489 24.3391 29.4325 23.2337 29.0778 22.3556C28.9127 21.9468 28.8862 21.4311 28.8843 20.9359C30.4534 19.9749 31.6604 17.9585 31.891 17.3424C32.0137 17.0082 32.1089 16.6645 32.1756 16.3148C32.6627 16.5617 32.9578 16.4498 33.2513 16.2155C33.5559 15.9566 33.8011 15.6349 33.9699 15.2725C34.3281 14.5556 34.4823 13.7539 34.4157 12.9552C34.4064 12.7511 34.3544 12.5512 34.2629 12.3684C34.184 12.236 34.0763 12.1229 33.9479 12.0376C33.8195 11.9522 33.6737 11.8967 33.521 11.8752C33.3654 11.8523 33.2066 11.8634 33.0556 11.9075C32.9047 11.9516 32.765 12.0279 32.6462 12.1309L32.6653 12.105C32.5265 12.1994 32.4668 12.1784 32.4612 12.1189C32.4531 12.0318 32.4433 11.9429 32.4297 11.8563C32.3872 11.5981 32.3303 11.3425 32.2593 11.0907C32.0392 10.3836 31.7331 9.7063 31.3478 9.0739C31.0826 8.60214 30.72 8.19223 30.2841 7.87141C29.8483 7.55058 29.3491 7.3262 28.8198 7.21316C28.4224 7.1616 28.0212 7.14372 27.6208 7.1597C27.2631 7.16275 26.8952 7.18011 26.5007 7.1597C25.7207 6.78963 24.4862 6.87406 23.6818 7.19483C23.1029 7.42548 22.5829 7.83067 21.9551 7.87803C21.3899 7.92052 20.7541 7.67515 20.2908 7.97912C20.1363 8.09386 20.0077 8.23975 19.9131 8.40737C19.6977 8.74133 19.5007 9.08677 19.3228 9.44216C19.2346 9.61861 19.151 9.79779 19.0722 9.97969C18.9979 10.1515 18.8765 10.3978 18.7924 10.566C18.6396 10.8715 18.4313 11.3247 18.2883 11.6352C18.1989 11.8296 18.0668 12.3295 17.8301 12.0858L17.843 12.1308C17.7241 12.0277 17.5845 11.9515 17.4335 11.9074C17.2825 11.8632 17.1238 11.8522 16.9681 11.875C16.8155 11.8966 16.6696 11.9521 16.5412 12.0374C16.4128 12.1228 16.3052 12.2358 16.2262 12.3683C16.1348 12.551 16.0827 12.7509 16.0735 12.9551C16.0069 13.7538 16.1611 14.5555 16.5192 15.2725C16.6882 15.6349 16.9333 15.9565 17.2378 16.2155C17.5016 16.4262 17.8389 16.6592 18.2908 16.4794C18.5513 17.5833 19.0621 18.6126 19.7836 19.4878C20.3221 20.1503 20.992 20.694 21.7511 21.0847C21.7501 21.5792 21.7248 22.0977 21.5578 22.5099C21.2017 23.3883 19.586 24.3396 19.4545 24.3974C19.4545 24.3974 21.0514 25.996 25.2672 25.996C29.483 25.996 31.4808 24.3969 31.4808 24.3969Z" fill="white"/>
<path d="M17.83 12.0854C18.0661 12.3291 18.1989 11.8299 18.2883 11.6348C18.4309 11.3243 18.6396 10.8711 18.7923 10.5656C18.8765 10.3974 18.9979 10.1511 19.0722 9.97928C19.151 9.79756 19.2346 9.61838 19.3228 9.44175C19.5006 9.08636 19.6977 8.74092 19.9131 8.40695C20.0076 8.23934 20.1363 8.09345 20.2908 7.9787C20.754 7.67474 21.3899 7.92011 21.9551 7.87761C22.5829 7.83026 23.1029 7.42506 23.6818 7.19442C24.4872 6.87365 25.7211 6.78922 26.5007 7.15928C26.8952 7.1797 27.263 7.16234 27.6207 7.15928C28.0212 7.14331 28.4223 7.16119 28.8198 7.21275C29.3491 7.32578 29.8482 7.55017 30.2841 7.87099C30.72 8.19182 31.0826 8.60173 31.3478 9.07349C31.7331 9.70588 32.0392 10.3832 32.2593 11.0903C32.3303 11.3421 32.3871 11.5977 32.4297 11.8559C32.4435 11.9425 32.4531 12.0314 32.4612 12.1184C32.4667 12.1776 32.5259 12.1986 32.6653 12.1046L32.6461 12.1305C32.7642 12.0281 32.9028 11.9522 33.0527 11.9079C33.2026 11.8637 33.3603 11.8521 33.515 11.8739C34.0611 10.0797 33.9135 7.80527 33.3827 6.44845C33.0175 5.51544 32.458 4.43857 31.3246 3.81647L30.2843 2.89596C29.8171 1.94739 28.8412 1.13519 27.5581 0.67695C26.2135 0.196767 22.2937 0.115255 20.9761 1.25461L19.6236 2.18013C18.1146 2.86888 17.0499 4.5173 16.5964 6.21614C16.1291 7.96662 16.125 10.5039 16.7827 11.9233C16.9622 11.8621 17.1546 11.849 17.3407 11.8856C17.5267 11.9222 17.6999 12.007 17.8428 12.1316L17.83 12.0854Z" fill="#7A7473"/>
<path d="M30.5731 2.72765C29.8816 1.34779 28.3652 0.418943 26.8711 0.166493C25.4807 -0.0687132 24.0595 -0.0546071 22.6741 0.208151C21.9888 0.34132 21.2819 0.559888 20.7414 1.0191C20.6796 1.08197 20.645 1.1666 20.645 1.25475C20.645 1.3429 20.6796 1.42753 20.7414 1.4904C20.8048 1.55125 20.8892 1.58522 20.9771 1.58522C21.0649 1.58522 21.1494 1.55125 21.2127 1.4904C21.2179 1.48609 21.294 1.4243 21.2386 1.46721C21.263 1.44832 21.2883 1.43055 21.3135 1.41305C21.3662 1.37681 21.4205 1.34362 21.4757 1.31099C21.5804 1.25175 21.6881 1.19816 21.7984 1.15047C22.0741 1.04101 22.3585 0.954936 22.6486 0.893155C23.2873 0.758131 23.938 0.68687 24.5908 0.680419C25.817 0.653758 27.0246 0.714996 28.1318 1.28572C28.9105 1.68717 29.5998 2.27163 29.9968 3.06425C30.1892 3.44779 30.7643 3.11063 30.5724 2.72793L30.5731 2.72765Z" fill="#211715"/>
<path d="M28.5889 21.1525C28.5991 21.7149 28.6305 22.345 28.9432 22.8327C29.1763 23.1719 29.4611 23.4725 29.7872 23.7236C30.1119 23.9882 30.4516 24.2337 30.8047 24.4589C30.9868 24.5851 31.1776 24.6983 31.3757 24.7977C31.4526 24.8398 31.5426 24.8508 31.6274 24.8286C31.7122 24.8064 31.7852 24.7526 31.8316 24.6782C31.8755 24.6017 31.8875 24.511 31.8652 24.4257C31.8428 24.3404 31.7878 24.2673 31.712 24.2222C31.5335 24.1328 31.3614 24.0315 31.1967 23.9187C30.8945 23.73 30.6029 23.525 30.323 23.3046C30.1631 23.1778 30.0099 23.0429 29.8639 22.9005C29.7519 22.7926 29.6489 22.6759 29.5558 22.5514C29.5072 22.4822 29.4643 22.4092 29.4276 22.3331C29.464 22.4095 29.4015 22.261 29.3998 22.2549C29.3754 22.1826 29.3555 22.109 29.3384 22.0347C29.2805 21.7442 29.2528 21.4484 29.2558 21.1522C29.248 20.7238 28.5814 20.7224 28.5893 21.1522L28.5889 21.1525Z" fill="#211715"/>
<path d="M19.5645 24.798C19.7565 24.701 19.9403 24.5886 20.1141 24.4618C20.4448 24.2426 20.7591 23.9995 21.0543 23.7345C21.3519 23.4838 21.5987 23.1783 21.7811 22.8347C22.0265 22.3168 22.0473 21.7199 22.05 21.1567C22.0521 20.7277 21.3855 20.7273 21.3834 21.1567C21.3874 21.4236 21.3739 21.6905 21.3432 21.9557C21.3173 22.1648 21.2603 22.3688 21.1742 22.5611C21.0032 22.8518 20.7811 23.1091 20.5186 23.3208C20.2667 23.5405 19.9998 23.7424 19.7199 23.925C19.5638 24.0366 19.3994 24.136 19.2282 24.2224C19.1524 24.2675 19.0973 24.3406 19.0749 24.426C19.0526 24.5113 19.0647 24.602 19.1086 24.6785C19.1546 24.7532 19.2277 24.8073 19.3126 24.8296C19.3975 24.8519 19.4877 24.8406 19.5645 24.798Z" fill="#211715"/>
<path d="M31.8806 15.9284C31.8631 16.2303 31.8068 16.5287 31.713 16.8163C31.6804 16.9254 31.6445 17.0337 31.6078 17.1415C31.5951 17.1788 31.5828 17.2163 31.5696 17.2535C31.5647 17.2674 31.5308 17.3487 31.5535 17.2952C31.5773 17.239 31.5378 17.3289 31.5329 17.3396C31.52 17.3674 31.5068 17.3952 31.4933 17.423C31.4583 17.4945 31.4214 17.5653 31.3835 17.6353C31.2981 17.793 31.2067 17.9476 31.1116 18.0995C30.6136 18.917 29.9865 19.6486 29.2547 20.2657C28.8474 20.6131 28.3735 20.8739 27.862 21.032C27.4502 21.1497 27.6259 21.7929 28.0391 21.6748C29.0926 21.3738 29.9693 20.6161 30.6749 19.8036C31.2583 19.158 31.7456 18.4317 32.1218 17.6471C32.3715 17.1064 32.5158 16.5231 32.5471 15.9284C32.561 15.4994 31.8945 15.5 31.8806 15.9284Z" fill="#211715"/>
<path d="M17.8331 15.9385C18.2265 18.0458 19.3517 20.0697 21.2375 21.1858C21.7395 21.4879 22.2947 21.691 22.8731 21.784C22.9582 21.8047 23.0479 21.7921 23.1241 21.7488C23.2002 21.7056 23.2569 21.6349 23.2828 21.5513C23.3056 21.4661 23.294 21.3754 23.2504 21.2986C23.2069 21.2219 23.1349 21.1655 23.05 21.1414C21.0411 20.8359 19.5037 19.0168 18.8531 17.1879C18.6902 16.7228 18.5641 16.2456 18.4759 15.7608C18.4518 15.676 18.3953 15.6041 18.3186 15.5605C18.2419 15.517 18.1512 15.5053 18.066 15.5281C17.9818 15.5532 17.9106 15.6098 17.8672 15.6862C17.8238 15.7626 17.8116 15.8528 17.8331 15.938V15.9385Z" fill="#211715"/>
<path d="M32.8822 12.366C32.9598 12.3021 33.0495 12.2545 33.146 12.2263C33.2424 12.198 33.3436 12.1895 33.4434 12.2015C33.5432 12.2134 33.6396 12.2455 33.7266 12.2957C33.8137 12.346 33.8897 12.4133 33.9499 12.4938C34.0831 12.6946 34.0896 12.9659 34.0964 13.1984C34.1057 13.4637 34.0876 13.7293 34.0426 13.991C33.9553 14.5081 33.7671 15.0031 33.4886 15.4475C33.2781 15.7758 32.9353 16.2099 32.4999 16.0902C32.0859 15.9762 31.9091 16.6191 32.3228 16.7328C33.4527 17.0437 34.1966 15.7352 34.5068 14.8493C34.6914 14.319 34.7782 13.7596 34.763 13.1984C34.747 12.6313 34.6241 12.0855 34.1242 11.7542C33.8617 11.5897 33.5531 11.5145 33.2444 11.5398C32.9357 11.5651 32.6434 11.6896 32.4112 11.8946C32.3494 11.9575 32.3148 12.0421 32.3148 12.1302C32.3148 12.2184 32.3494 12.303 32.4112 12.3659C32.4746 12.4267 32.559 12.4607 32.6469 12.4607C32.7347 12.4607 32.8191 12.4267 32.8825 12.3659L32.8822 12.366Z" fill="#211715"/>
<path d="M18.0786 11.8947C17.8691 11.7108 17.6109 11.5915 17.3351 11.5512C17.0593 11.5109 16.7777 11.5514 16.5244 11.6677C15.9772 11.9192 15.7771 12.4489 15.7358 13.0155C15.6557 14.1125 15.9873 15.3302 16.7144 16.1706C17.1047 16.6219 17.6586 16.9786 18.2735 16.8357C18.6912 16.7385 18.5144 16.0957 18.0963 16.1929C17.6832 16.289 17.2746 15.8449 17.0639 15.5419C16.6131 14.867 16.3787 14.0708 16.3918 13.2593C16.3953 13.0148 16.3979 12.7308 16.5269 12.5149C16.7452 12.1498 17.2937 12.0991 17.6073 12.366C17.6708 12.4265 17.7552 12.4602 17.8429 12.4602C17.9306 12.4602 18.015 12.4265 18.0786 12.366C18.1404 12.3032 18.175 12.2185 18.175 12.1304C18.175 12.0422 18.1404 11.9576 18.0786 11.8947Z" fill="#211715"/>
<path d="M19.4553 1.89199C18.116 2.51339 17.1813 3.7787 16.6234 5.11122C16.0581 6.46164 15.8782 7.97829 15.943 9.4337C15.9593 10.2256 16.0988 11.0101 16.3563 11.7591C16.3818 11.843 16.4386 11.914 16.5148 11.9573C16.5911 12.0006 16.6811 12.013 16.7663 11.9919C16.8511 11.9678 16.9231 11.9113 16.9666 11.8346C17.0102 11.7579 17.0218 11.6671 16.999 11.5819C16.5278 10.3182 16.5234 8.87034 16.6811 7.54671C16.8383 6.22836 17.2803 4.92611 18.0931 3.86396C18.538 3.26789 19.1209 2.78868 19.7918 2.46743C19.8676 2.42234 19.9226 2.34927 19.9449 2.26398C19.9673 2.17869 19.9552 2.08802 19.9113 2.01155C19.8654 1.93671 19.7923 1.88251 19.7073 1.86024C19.6224 1.83796 19.5321 1.84934 19.4553 1.89199Z" fill="#211715"/>
<path d="M31.1562 4.10419C32.0738 4.61701 32.6454 5.49864 33.0284 6.45429C33.4329 7.46381 33.5529 8.57887 33.5218 9.65879C33.5063 10.3367 33.4082 11.0102 33.2296 11.6644C33.1139 12.0782 33.7573 12.2547 33.8722 11.8416C34.2098 10.5721 34.2848 9.24718 34.0929 7.94774C33.9585 6.87062 33.5802 5.83837 32.9866 4.92959C32.6056 4.35187 32.0941 3.8719 31.4933 3.52847C31.1183 3.31893 30.7819 3.89451 31.1568 4.10406L31.1562 4.10419Z" fill="#211715"/>
<path d="M26.392 6.98584C25.6562 6.64211 24.8266 6.55413 24.035 6.73589C23.6559 6.8373 23.2907 6.98529 22.948 7.1765C22.6368 7.33661 22.3103 7.51435 21.955 7.54504C21.591 7.57642 21.229 7.48394 20.8652 7.49213C20.6728 7.48821 20.4818 7.52606 20.3054 7.60309C20.129 7.68012 19.9714 7.79448 19.8435 7.9383C19.2968 8.58053 18.987 9.40884 18.6215 10.1573C18.4561 10.4956 18.3277 10.8505 18.1571 11.186C18.0792 11.3387 17.9869 11.4827 17.919 11.641C17.8904 11.7078 17.8621 11.7743 17.8271 11.8381C17.8297 11.8335 17.7918 11.8924 17.7924 11.8936C17.7478 11.7999 18.0654 11.85 18.0659 11.8506C17.7512 11.5599 17.2787 12.0301 17.5946 12.3219C17.8746 12.5806 18.2195 12.4923 18.4026 12.1747C18.4617 12.0726 18.4969 11.9589 18.5496 11.8536C18.6322 11.688 18.7315 11.5323 18.8095 11.3639C19.131 10.6708 19.4147 9.95943 19.7797 9.28678C19.8797 9.10265 19.9849 8.92148 20.0954 8.74328C20.1838 8.56796 20.3027 8.40978 20.4466 8.27615C20.7089 8.07549 21.1217 8.16506 21.4225 8.19283C21.8061 8.24158 22.1959 8.20362 22.5629 8.08174C22.9387 7.94635 23.281 7.74097 23.6418 7.57281C24.0199 7.39835 24.4311 7.30706 24.8475 7.30509C25.2639 7.30313 25.676 7.39054 26.0557 7.56143C26.1326 7.60352 26.2227 7.61458 26.3074 7.59235C26.3922 7.57011 26.4653 7.51627 26.5116 7.44187C26.5555 7.36537 26.5676 7.27469 26.5452 7.18937C26.5228 7.10406 26.4678 7.03096 26.392 6.98584Z" fill="#211715"/>
<path d="M23.4446 5.38393C24.3125 5.19286 25.2205 5.3379 25.9857 5.78982C26.2961 5.96253 26.5723 6.19049 26.8007 6.46246C27.0214 6.748 27.2096 7.05721 27.3618 7.38437C27.5562 7.76693 28.1314 7.42991 27.9374 7.0479C27.5433 6.27181 27.0507 5.61569 26.2752 5.18813C25.3629 4.66982 24.2901 4.51043 23.2665 4.74114C22.8484 4.83626 23.0255 5.47891 23.4439 5.38393H23.4446Z" fill="#211715"/>
<path d="M28.8234 7.41978C29.6116 7.61768 30.2989 8.09961 30.7536 8.77313C31.3087 9.53698 31.7213 10.3948 31.9716 11.3053C32.01 11.4529 32.0452 11.6015 32.0743 11.7513C32.1035 11.9011 32.1042 12.0605 32.1399 12.2073C32.2232 12.5472 32.5894 12.5439 32.8342 12.3921C33.1977 12.1661 32.8635 11.5892 32.4978 11.8166C32.3908 11.8693 32.4398 11.8861 32.6448 11.867L32.7643 11.9865C32.7908 12.0751 32.7965 12.0753 32.7815 11.9872C32.7751 11.9357 32.7684 11.8842 32.7613 11.8329C32.749 11.7462 32.7343 11.6599 32.7177 11.5741C32.6845 11.4029 32.6435 11.2333 32.5984 11.0649C32.5241 10.7939 32.4317 10.5282 32.3218 10.2696C32.0926 9.71085 31.813 9.17411 31.4864 8.66606C30.8902 7.75235 30.0825 7.03388 29.0008 6.77755C28.5842 6.67854 28.4057 7.32105 28.8236 7.4202L28.8234 7.41978Z" fill="#211715"/>
<path d="M35.9157 49.6777C35.9143 48.11 35.8324 47.0893 35.8324 45.7077C35.8324 45.2671 35.8292 44.8419 35.8305 44.4239C35.8305 44.4239 35.8305 44.3556 35.8305 44.2409C36.5236 44.6204 37.3257 44.9339 37.9473 44.9727C39.0638 45.0421 40.2218 44.5561 40.7853 43.67C41.3488 42.7839 41.5253 41.7846 41.6228 40.7388C41.9337 37.4061 41.0118 34.2739 40.5438 32.3359C40.2874 31.2306 39.9706 30.1402 39.595 29.0696C39.3773 28.5406 39.1129 28.0035 38.7706 27.6671C38.3852 27.2629 37.9326 26.9288 37.4329 26.6795C35.9028 25.9536 31.9282 24.3385 30.2735 23.6612C29.884 22.9252 29.729 22.5329 29.1682 22.0173C28.632 22.738 27.4081 23.638 25.941 24.2281C25.8362 24.2625 25.7392 24.3173 25.6558 24.3895C25.6207 24.4549 25.689 24.5124 25.7211 24.5638C25.7591 24.6137 25.8014 24.6602 25.8477 24.7026C25.4692 24.7035 25.1812 24.7044 24.8175 24.7051C24.8646 24.6619 24.9078 24.6146 24.9465 24.5638C24.9787 24.5124 25.047 24.4549 25.0119 24.3895C24.9285 24.3173 24.8315 24.2625 24.7267 24.2281C23.2596 23.638 22.0355 22.738 21.4995 22.0173C20.9391 22.5325 20.7838 22.924 20.3953 23.6591C18.7395 24.3008 14.8211 25.9368 13.2848 26.6239C12.804 26.8403 12.2512 27.1137 11.8823 27.4872C11.504 27.8686 11.2069 28.3227 11.0088 28.822C10.8507 29.202 10.7099 29.5599 10.5818 29.9016C10.1152 31.2948 9.7212 32.7112 9.4015 34.1452C9.14822 35.2746 9.01408 35.7421 8.60457 37.9386C8.31907 39.4701 8.19104 41.547 8.47182 43.0796C8.7526 44.6122 9.81142 45.6402 11.2942 46.1533C12.259 46.4865 13.4265 46.1627 14.6339 45.5924C14.6388 47.0334 14.5524 48.0666 14.5506 49.6777H35.9157Z" fill="white"/>
<path d="M27.4143 46.8657C27.639 46.6251 27.8469 46.3936 28.0193 46.193C28.2276 45.95 28.3804 45.8336 28.3983 45.635C28.3992 45.3741 28.379 45.1135 28.3382 44.8557C27.8895 39.9981 27.3099 32.9589 26.5151 27.3127C26.535 27.0495 26.593 26.7906 26.6873 26.5441C26.776 26.2716 26.8354 26.0285 26.893 25.7925C26.7403 25.6341 26.5875 25.4744 26.4419 25.315C26.169 25.0156 25.9689 24.8231 25.848 24.7032C25.4697 24.7032 25.1825 24.7048 24.8185 24.7057C24.6972 24.8258 24.4981 25.0177 24.2272 25.315C24.1326 25.4187 24.035 25.5233 23.9356 25.6263C24.0108 26.0151 24.0665 26.2729 24.1516 26.6375C24.2059 26.8478 24.246 27.0615 24.2715 27.2772V27.3502C23.7499 33.0687 22.916 40.483 22.4131 45.3495C22.3795 45.5349 22.3942 45.7259 22.4559 45.904C22.5408 46.0519 22.6498 46.1847 22.7784 46.2968C23.4211 46.9849 24.1976 47.705 24.9388 48.4075C25.058 48.5261 25.2102 48.6058 25.3754 48.6364C25.5459 48.6491 25.7305 48.5038 25.8538 48.3974C26.3187 47.9964 26.909 47.4073 27.4143 46.8657Z" fill="#E99980"/>
<path d="M26.5287 25.8782C26.4193 26.3126 26.2403 26.7353 26.1911 27.1824C26.1854 27.3864 26.2044 27.5903 26.2476 27.7897C26.2745 27.9852 26.3009 28.1807 26.3268 28.3762C26.433 29.1786 26.5331 29.9819 26.6271 30.7859C26.8229 32.4482 26.9984 34.1127 27.1638 35.7784C27.3257 37.4105 27.4798 39.0435 27.626 40.6773C27.7579 42.1292 27.8572 43.5882 28.0238 45.0367C28.0471 45.1937 28.0622 45.3519 28.0691 45.5105C28.0706 45.6493 28.0182 45.696 27.9092 45.816C27.6787 46.0708 27.4553 46.3318 27.2213 46.5837C26.718 47.1402 26.1828 47.667 25.6184 48.1613C25.5635 48.2084 25.5043 48.2502 25.4417 48.2863C25.425 48.2959 25.3457 48.3113 25.4 48.3078C25.4543 48.3044 25.3735 48.3001 25.3556 48.2915C25.179 48.1845 25.0198 48.0512 24.8834 47.8961C24.5512 47.5823 24.2187 47.2687 23.8911 46.9499C23.5788 46.6461 23.2774 46.3328 22.9747 46.0195C22.8457 45.8861 22.7386 45.7957 22.7319 45.6C22.7352 45.4091 22.7512 45.2185 22.78 45.0297C23.0934 42.0155 23.4232 39.0031 23.741 35.9898C23.9143 34.3476 24.0837 32.7048 24.2491 31.0614C24.3274 30.2768 24.404 29.4921 24.4788 28.7071C24.515 28.3261 24.5506 27.945 24.5857 27.5639C24.6072 27.2676 24.5797 26.9698 24.5042 26.6825C24.4258 26.3394 24.3479 25.9964 24.2795 25.6511C24.256 25.5658 24.1996 25.4933 24.1227 25.4496C24.0458 25.406 23.9547 25.3946 23.8694 25.4181C23.7841 25.4416 23.7117 25.498 23.668 25.5749C23.6243 25.6518 23.613 25.743 23.6365 25.8282C23.7085 26.1921 23.7927 26.5528 23.8736 26.9146C23.8891 26.984 23.9041 27.0524 23.9173 27.1217C23.9224 27.1488 23.9277 27.1762 23.932 27.2034C23.9509 27.3227 23.9328 27.1546 23.9377 27.2521C23.937 27.4283 23.9242 27.6043 23.8992 27.7787C23.8272 28.5569 23.7528 29.3348 23.6762 30.1125C23.5121 31.7855 23.3416 33.4579 23.1648 35.1296C22.8351 38.274 22.4911 41.4167 22.1622 44.5611C22.1086 44.9052 22.0761 45.2523 22.065 45.6005C22.0632 45.8198 22.1296 46.0343 22.2551 46.2142C22.3968 46.3904 22.5498 46.5571 22.7133 46.7133C23.0359 47.0499 23.3696 47.3758 23.7062 47.6984C24.0463 48.0243 24.3797 48.3662 24.7368 48.6733C25.0736 48.9631 25.4789 49.0684 25.8667 48.8072C26.1581 48.5918 26.4304 48.3518 26.6806 48.0897C27.2298 47.5601 27.7534 47.0042 28.2546 46.4292C28.3879 46.2948 28.5098 46.1495 28.6188 45.9947C28.7086 45.8347 28.7488 45.6517 28.7342 45.4688C28.7214 45.1208 28.6631 44.7706 28.6313 44.4236C28.564 43.6883 28.4974 42.9529 28.4314 42.2175C28.2856 40.6004 28.1366 38.9837 27.9846 37.3674C27.8214 35.6596 27.6467 33.953 27.4604 32.2475C27.3671 31.4074 27.269 30.5678 27.1659 29.7287C27.1148 29.3157 27.0622 28.9029 27.008 28.4902C26.9817 28.2911 26.9551 28.0921 26.9282 27.8931C26.8854 27.691 26.8572 27.4862 26.8438 27.28C26.864 27.0798 26.9124 26.8835 26.9876 26.6968C27.0557 26.4852 27.1168 26.2726 27.1712 26.0568C27.2759 25.6402 26.6332 25.4633 26.5284 25.8796L26.5287 25.8782Z" fill="#211715"/>
<path d="M36.2491 49.6777C36.2478 48.8098 36.2157 47.943 36.1893 47.0756C36.1625 46.192 36.1615 45.3079 36.1639 44.4233C36.165 43.9944 35.4985 43.9938 35.4974 44.4233C35.4951 45.3073 35.4961 46.1914 35.5228 47.0756C35.549 47.943 35.5812 48.8098 35.5826 49.6777C35.5826 50.1065 36.2498 50.1073 36.2491 49.6777Z" fill="#211715"/>
<path d="M14.3011 45.5899C14.3011 46.9532 14.2201 48.3148 14.2178 49.678C14.2171 50.1069 14.8843 50.1076 14.8843 49.678C14.8867 48.3148 14.9676 46.9532 14.9676 45.5899C14.9676 45.1611 14.3011 45.1604 14.3011 45.5899Z" fill="#211715"/>
<path d="M27.8767 26.8426C28.7841 25.784 29.5325 24.599 30.0985 23.3248C29.8229 22.7933 29.6376 22.4489 29.1681 22.0179C28.632 22.7386 27.4081 23.6385 25.941 24.2287C25.8362 24.263 25.7392 24.3179 25.6558 24.3901C25.6207 24.4555 25.689 24.5129 25.721 24.5643C25.7716 24.645 26.0195 24.8523 26.4412 25.3152C26.9203 25.8403 27.4807 26.3698 27.8767 26.8426Z" fill="white"/>
<path d="M22.7923 26.8426C21.8849 25.7841 21.1365 24.5991 20.5706 23.3248C20.8462 22.7933 21.0314 22.4489 21.5002 22.0179C22.0362 22.7386 23.2603 23.6385 24.7274 24.2287C24.8322 24.263 24.9292 24.3179 25.0126 24.3901C25.0477 24.4555 24.9794 24.5129 24.9472 24.5643C24.8968 24.645 24.6489 24.8523 24.2272 25.3152C23.7488 25.8403 23.1884 26.3698 22.7923 26.8426Z" fill="white"/>
<path d="M24.3382 27.5904C25.0282 27.5904 25.7182 27.5751 26.4082 27.5748C26.4965 27.5748 26.5813 27.5397 26.6438 27.4772C26.7063 27.4147 26.7414 27.3299 26.7414 27.2416C26.7414 27.1532 26.7063 27.0684 26.6438 27.0059C26.5813 26.9434 26.4965 26.9083 26.4082 26.9083C25.7182 26.9083 25.0282 26.9236 24.3382 26.9238C24.2498 26.9238 24.165 26.959 24.1025 27.0215C24.04 27.084 24.0049 27.1687 24.0049 27.2571C24.0049 27.3455 24.04 27.4303 24.1025 27.4928C24.165 27.5553 24.2498 27.5904 24.3382 27.5904Z" fill="#211715"/>
<path d="M25.8541 24.3702C25.5056 24.371 25.1572 24.3719 24.8089 24.3728C24.7205 24.3728 24.6357 24.4079 24.5732 24.4704C24.5107 24.5329 24.4756 24.6177 24.4756 24.7061C24.4756 24.7945 24.5107 24.8793 24.5732 24.9418C24.6357 25.0043 24.7205 25.0394 24.8089 25.0394C25.1572 25.0387 25.5056 25.0378 25.8541 25.0367C25.9425 25.0367 26.0272 25.0016 26.0897 24.9391C26.1522 24.8766 26.1873 24.7918 26.1873 24.7035C26.1873 24.6151 26.1522 24.5303 26.0897 24.4678C26.0272 24.4053 25.9425 24.3702 25.8541 24.3702Z" fill="#211715"/>
<path d="M28.1124 27.078C28.7957 26.2765 29.3941 25.4063 29.8978 24.4813C30.0195 24.2539 30.1357 24.0238 30.2465 23.791C30.315 23.6704 30.373 23.5441 30.4198 23.4136C30.4652 23.2482 30.3572 23.0992 30.2833 22.9598C30.0588 22.5206 29.7617 22.1225 29.4045 21.7824C29.3679 21.7475 29.3239 21.7212 29.2759 21.7055C29.2278 21.6897 29.1769 21.6849 29.1267 21.6914C29.0765 21.6979 29.0285 21.7154 28.986 21.7429C28.9435 21.7703 28.9077 21.8068 28.8811 21.8499C28.3222 22.591 27.3649 23.1836 26.5121 23.6088C26.2344 23.7477 25.9445 23.8535 25.6663 23.9881C25.3758 24.1286 25.2061 24.402 25.4115 24.7011C25.628 25.0163 25.9482 25.2704 26.2062 25.5509C26.6783 26.0647 27.1903 26.5445 27.6411 27.0784C27.7039 27.1402 27.7886 27.1749 27.8767 27.1749C27.9649 27.1749 28.0495 27.1402 28.1124 27.0784C28.1732 27.0151 28.2072 26.9306 28.2072 26.8428C28.2072 26.7549 28.1732 26.6705 28.1124 26.6071C27.6886 26.1051 27.2089 25.6538 26.7626 25.1724C26.5709 24.9654 26.3787 24.7597 26.1782 24.5614C26.1241 24.5078 26.071 24.4534 26.0168 24.3998C25.9953 24.3785 25.9474 24.3081 26.0157 24.4057C26.0075 24.3941 25.9629 24.3179 25.9681 24.3403V24.5175L25.9778 24.4792L25.8921 24.6263C25.8582 24.666 25.9268 24.6025 25.9522 24.589C25.9776 24.5756 26.0039 24.5625 26.0303 24.5507C26.1425 24.5 26.2583 24.4567 26.3712 24.4076C26.5695 24.3212 26.7649 24.2286 26.9573 24.1298C27.3112 23.9487 27.6536 23.7459 27.9825 23.5227C28.5436 23.1609 29.0415 22.7096 29.4565 22.1867L28.9332 22.2542C29.2965 22.6124 29.5936 23.032 29.8108 23.4937V23.1574C29.245 24.3993 28.5153 25.5597 27.6411 26.6077C27.5807 26.6713 27.547 26.7556 27.547 26.8433C27.547 26.931 27.5807 27.0154 27.6411 27.079C27.704 27.1407 27.7887 27.1752 27.8769 27.175C27.9651 27.1748 28.0497 27.14 28.1124 27.078Z" fill="#211715"/>
<path d="M23.0278 26.607C22.1536 25.559 21.4239 24.3986 20.8581 23.1567V23.493C21.0753 23.0313 21.3725 22.6117 21.7357 22.2535L21.2122 22.186C21.6273 22.7089 22.1253 23.1602 22.6864 23.522C23.0154 23.7451 23.3577 23.9479 23.7115 24.1291C23.8946 24.2233 24.0804 24.3117 24.269 24.3945C24.3817 24.4439 24.4964 24.489 24.6093 24.5382C24.646 24.5542 24.6813 24.5697 24.7167 24.5885C24.7393 24.6006 24.8169 24.6726 24.7768 24.6257L24.6911 24.4786L24.7008 24.517V24.3398C24.706 24.3173 24.6614 24.3935 24.6532 24.4052C24.722 24.308 24.6736 24.3774 24.6521 24.3992C24.598 24.4528 24.5448 24.5072 24.4906 24.5608C24.2902 24.7595 24.0981 24.9652 23.9061 25.1718C23.46 25.6533 22.9804 26.1046 22.5565 26.6065C22.4961 26.6701 22.4625 26.7545 22.4625 26.8422C22.4625 26.9299 22.4961 27.0142 22.5565 27.0778C22.6194 27.1397 22.704 27.1743 22.7922 27.1743C22.8804 27.1743 22.965 27.1397 23.0278 27.0778C23.4243 26.6082 23.87 26.1832 24.2915 25.7359C24.4866 25.5284 24.6771 25.3171 24.8785 25.1154C24.9757 25.0182 25.0811 24.9248 25.1701 24.8188C25.3606 24.5907 25.4456 24.287 25.1659 24.0829C24.9366 23.9162 24.6359 23.8353 24.3797 23.7153C23.8502 23.4688 23.3441 23.1748 22.8676 22.837C22.4634 22.56 22.1002 22.2274 21.7889 21.849C21.7624 21.806 21.7265 21.7694 21.684 21.742C21.6416 21.7146 21.5935 21.697 21.5433 21.6905C21.4932 21.6841 21.4422 21.6889 21.3942 21.7046C21.3461 21.7204 21.3022 21.7466 21.2656 21.7815C20.9084 22.1217 20.6112 22.5198 20.3867 22.9589C20.3192 23.0861 20.224 23.2186 20.2442 23.3684C20.2802 23.5075 20.3364 23.6406 20.4109 23.7635C20.5259 24.0051 20.6463 24.2441 20.7719 24.4804C21.2754 25.4057 21.8734 26.2762 22.5565 27.078C22.6194 27.1399 22.704 27.1746 22.7922 27.1746C22.8804 27.1746 22.965 27.1399 23.0278 27.078C23.0886 27.0146 23.1225 26.9302 23.1225 26.8425C23.1225 26.7547 23.0886 26.6703 23.0278 26.607Z" fill="#211715"/>
<path d="M13.5069 38.9229C14.2534 38.8039 14.969 38.5388 15.6128 38.1426C15.6506 38.1205 15.6837 38.0912 15.7101 38.0563C15.7366 38.0215 15.7559 37.9817 15.767 37.9394C15.7781 37.8971 15.7808 37.8529 15.7748 37.8096C15.7689 37.7662 15.7544 37.7245 15.7323 37.6867C15.7102 37.6489 15.6809 37.6158 15.6461 37.5894C15.6112 37.5629 15.5714 37.5436 15.5291 37.5325C15.4868 37.5214 15.4427 37.5188 15.3993 37.5247C15.3559 37.5307 15.3142 37.5451 15.2764 37.5672C14.6827 37.9347 14.0203 38.1773 13.3297 38.2801C13.2446 38.3039 13.1724 38.3603 13.1288 38.4372C13.0852 38.514 13.0737 38.6049 13.097 38.6902C13.1227 38.7739 13.1794 38.8447 13.2557 38.888C13.3319 38.9313 13.4218 38.9438 13.5069 38.9229Z" fill="#211715"/>
<path d="M13.2035 34.0019C13.4195 35.4762 13.6483 36.9485 13.89 38.4188C13.9141 38.5037 13.9707 38.5757 14.0474 38.6192C14.1241 38.6628 14.2149 38.6744 14.3001 38.6515C14.3842 38.6263 14.4553 38.5696 14.4986 38.4932C14.542 38.4169 14.5542 38.3268 14.5328 38.2416C14.2908 36.7714 14.062 35.2991 13.8462 33.8247C13.8222 33.7398 13.7657 33.6677 13.689 33.6241C13.6123 33.5806 13.5215 33.5689 13.4362 33.5918C13.3523 33.6173 13.2812 33.674 13.2379 33.7504C13.1946 33.8267 13.1823 33.9167 13.2035 34.0019Z" fill="#211715"/>
<path d="M20.3962 23.3042C18.2774 24.1184 16.1842 25.0077 14.1001 25.906C13.6515 26.0994 13.1982 26.2875 12.7599 26.5031C12.0557 26.8302 11.4608 27.3537 11.0468 28.0106C10.8502 28.3507 10.6829 28.7069 10.5469 29.0754C10.3926 29.4579 10.2482 29.8422 10.1211 30.2346C9.86081 31.039 9.62475 31.8507 9.41294 32.6697C9.13994 33.7271 8.8979 34.7965 8.6717 35.8651C8.37939 37.252 8.10084 38.646 8.01391 40.0631C7.96011 40.8391 7.9694 41.6181 8.04168 42.3926C8.08593 43.0659 8.25844 43.7246 8.54992 44.3332C8.84716 44.8901 9.26716 45.3721 9.77815 45.7428C10.2956 46.1397 10.8933 46.4191 11.5297 46.5614C12.2292 46.6957 12.9471 46.5776 13.6174 46.3602C14.4126 46.0845 15.1787 45.7313 15.9047 45.3056C16.5921 44.9207 17.2713 44.5162 17.9332 44.0888C18.5836 43.6843 19.1948 43.2198 19.7588 42.7016C20.0118 42.4613 20.2421 42.1981 20.4466 41.9153C20.4905 41.8389 20.5026 41.7482 20.4803 41.6628C20.4579 41.5775 20.4028 41.5044 20.327 41.4593C20.2503 41.4166 20.16 41.4052 20.075 41.4275C19.99 41.4498 19.917 41.504 19.871 41.5789C19.4599 42.1098 18.9687 42.5736 18.4151 42.9536C17.8318 43.3813 17.2143 43.7619 16.5935 44.1339C15.8911 44.5671 15.1673 44.9645 14.4247 45.3245C13.7951 45.6195 13.109 45.8886 12.4098 45.9447C11.8096 45.9795 11.2124 45.8365 10.693 45.5337C10.1921 45.2773 9.75503 44.9119 9.41391 44.4644C8.63629 43.4049 8.6224 41.9788 8.65198 40.7177C8.68628 39.2882 8.93692 37.8981 9.22034 36.5006C9.40503 35.5894 9.61415 34.6815 9.82703 33.7771C10.1763 32.1939 10.6485 30.6403 11.2394 29.1305C11.4968 28.4991 11.8443 27.8726 12.4157 27.4722C12.899 27.1628 13.412 26.9023 13.947 26.6946C15.9566 25.8172 17.9813 24.9735 20.0211 24.1636C20.2047 24.0908 20.3886 24.0189 20.5728 23.9478C20.6567 23.9222 20.7275 23.8654 20.7708 23.7892C20.8141 23.7129 20.8265 23.623 20.8056 23.5379C20.7815 23.453 20.725 23.381 20.6483 23.3375C20.5716 23.2939 20.4808 23.2823 20.3956 23.3051L20.3962 23.3042Z" fill="#211715"/>
<path d="M24.7214 37.6808C24.7603 37.6747 24.7973 37.6687 24.8325 37.6629C25.4506 37.5588 25.8101 37.2107 25.7883 36.8287C25.7448 36.0679 24.8562 36.2433 24.9047 36.1669C25.2048 36.1853 25.5026 36.104 25.7518 35.9357C25.8401 35.8697 25.9105 35.7826 25.9566 35.6825C26.0026 35.5823 26.0229 35.4722 26.0156 35.3622C26.0191 35.2413 25.9851 35.1223 25.9185 35.0214C25.8518 34.9205 25.7556 34.8426 25.643 34.7984C25.3978 34.7234 25.1424 34.6873 24.886 34.6915C24.553 34.6855 24.22 34.6984 23.8885 34.7302C24.2312 34.4997 24.5214 34.2303 24.5925 33.9927C24.6777 33.7085 24.4926 33.466 24.24 33.3473C23.9736 33.2336 23.6831 33.1878 23.3946 33.214C22.5013 33.2721 21.6115 33.375 20.7284 33.5221C20.4365 33.5605 20.1566 33.6625 19.9085 33.8211C19.6137 34.0359 19.4434 34.3789 19.3046 34.7107C18.9052 35.6639 18.594 36.5486 17.6857 37.0614C16.736 37.5087 16.6987 38.093 16.8803 38.744C17.0096 39.0899 17.1826 39.4178 17.3951 39.7197C17.8714 40.3605 18.3906 40.9694 19.1496 41.2488C19.3422 41.3196 19.8107 41.5074 20.0477 41.3924C20.3406 41.2502 21.0398 40.3769 21.1406 39.8444C21.1406 39.8444 21.1498 39.7956 21.1646 39.7149C21.3633 39.697 21.5708 39.6891 21.7352 39.6755C22.3583 39.6088 22.9852 39.5842 23.6116 39.6019C23.952 39.62 24.3679 39.5977 24.5269 39.2964C24.6545 39.054 24.6418 38.7937 24.4297 38.6211C24.3766 38.5829 24.3183 38.5526 24.2565 38.5312C24.1601 38.492 24.0611 38.4595 23.9618 38.4284C23.7298 38.3559 23.4946 38.2934 23.2593 38.2318C23.0899 38.1873 22.7239 38.1237 22.5536 38.0825C22.4649 38.0611 22.5288 37.965 22.5888 37.9746C23.3633 37.86 24.2112 37.7606 24.7214 37.6808Z" fill="white"/>
<path d="M17.8533 37.3492C18.401 37.0177 18.8404 36.534 19.1178 35.9569C19.2651 35.6699 19.388 35.3708 19.5116 35.0729C19.6099 34.7834 19.7498 34.5097 19.9269 34.2603C20.1519 33.9859 20.4835 33.9082 20.817 33.8437C21.0728 33.7942 21.3308 33.7567 21.5893 33.7238C22.176 33.6491 22.7659 33.5875 23.3562 33.55C23.6124 33.5338 24.069 33.5156 24.2423 33.7571C24.4089 33.9898 23.9138 34.3075 23.7563 34.4179C23.6817 34.4641 23.6277 34.5372 23.6055 34.6221C23.5832 34.7069 23.5944 34.7971 23.6367 34.8739C23.6819 34.9497 23.755 35.0046 23.8403 35.027C23.9256 35.0494 24.0162 35.0373 24.0927 34.9935C24.4143 34.7681 24.8009 34.4797 24.9136 34.0817C24.9598 33.8957 24.9438 33.6996 24.868 33.5234C24.7922 33.3473 24.6607 33.2009 24.4938 33.1067C23.8893 32.7238 23.0448 32.9 22.376 32.9678C21.6888 33.0372 20.9641 33.0872 20.2977 33.2794C19.9017 33.3857 19.5558 33.6279 19.3204 33.9634C19.0951 34.2818 18.9678 34.6618 18.8178 35.0188C18.5275 35.7103 18.1888 36.3855 17.517 36.7739C17.1458 36.9885 17.481 37.5654 17.8534 37.3494L17.8533 37.3492Z" fill="#211715"/>
<path d="M21.5477 33.6232C21.8275 33.497 22.0984 33.352 22.3773 33.2236C22.4105 33.2083 22.4438 33.1932 22.4771 33.1783C22.4877 33.1737 22.6021 33.1251 22.5424 33.1498C22.6201 33.1178 22.6986 33.0872 22.7784 33.0592C22.9354 33.0032 23.0965 32.9595 23.2602 32.9284C23.3451 32.9045 23.4173 32.848 23.4608 32.7712C23.5044 32.6944 23.5159 32.6035 23.4929 32.5183C23.4674 32.4343 23.4107 32.3634 23.3344 32.32C23.2581 32.2767 23.1681 32.2644 23.083 32.2856C22.4132 32.4106 21.8247 32.7716 21.2118 33.0478C21.1357 33.0926 21.0805 33.1657 21.0581 33.2511C21.0357 33.3365 21.048 33.4273 21.0922 33.5037C21.1385 33.5781 21.2116 33.632 21.2964 33.6543C21.3812 33.6765 21.4713 33.6654 21.5481 33.6232H21.5477Z" fill="#211715"/>
<path d="M21.2841 35.4426C22.2784 35.2299 23.2874 35.0935 24.3025 35.0343C24.5557 35.0199 24.8095 35.0192 25.0628 35.0321C25.2648 35.0431 25.5935 35.0368 25.6663 35.2682C25.8775 35.9376 24.6337 35.8625 24.2856 35.8861C23.4196 35.9308 22.5579 36.0367 21.7069 36.2028C21.2874 36.2914 21.4649 36.9341 21.8841 36.8455C22.7308 36.6833 23.5881 36.5817 24.4493 36.5414C24.8621 36.5136 25.2941 36.5233 25.6799 36.3557C25.863 36.2849 26.0225 36.164 26.1402 36.0069C26.2579 35.8497 26.329 35.6627 26.3454 35.467C26.3634 35.2912 26.3327 35.1139 26.2568 34.9543C26.1809 34.7947 26.0627 34.6591 25.915 34.5621C25.5956 34.3699 25.1755 34.3636 24.8142 34.357C24.2071 34.3586 23.601 34.4044 23.0005 34.4942C22.3669 34.5757 21.733 34.6695 21.1076 34.8005C20.6879 34.8884 20.8655 35.5309 21.2848 35.4431L21.2841 35.4426Z" fill="#211715"/>
<path d="M25.0097 36.5283C25.0403 36.5307 25.0707 36.5333 25.1011 36.5365C25.1497 36.5414 25.0571 36.5227 25.1488 36.5449C25.2015 36.5568 25.2533 36.5721 25.3039 36.5906C25.3102 36.5936 25.3909 36.6389 25.3456 36.6103C25.3729 36.623 25.3947 36.6452 25.4068 36.6728C25.4396 36.7313 25.4565 36.7973 25.4559 36.8644C25.4578 36.9139 25.4426 36.9626 25.4128 37.0023C25.3682 37.0678 25.3108 37.1236 25.244 37.1661C25.0596 37.2721 24.8548 37.3374 24.6431 37.3578C23.6798 37.5105 22.7079 37.6012 21.748 37.7752C21.6632 37.7993 21.5913 37.8558 21.5477 37.9325C21.5042 38.0092 21.4925 38.0999 21.5153 38.1851C21.5404 38.2693 21.597 38.3405 21.6734 38.3839C21.7498 38.4272 21.84 38.4394 21.9252 38.4178C22.8354 38.2529 23.7561 38.158 24.6707 38.0232C25.0909 37.9614 25.5231 37.8607 25.8298 37.5432C25.9824 37.3891 26.0807 37.1897 26.1099 36.9748C26.1391 36.76 26.0976 36.5415 25.9916 36.3524C25.7833 35.9953 25.3935 35.8926 25.0098 35.8618C24.9217 35.8625 24.8373 35.8978 24.7749 35.9602C24.7126 36.0225 24.6773 36.1069 24.6766 36.1951C24.6783 36.2829 24.7139 36.3667 24.7761 36.4288C24.8382 36.491 24.9218 36.5266 25.0097 36.5283Z" fill="#211715"/>
<path d="M22.2445 37.8259C22.1952 37.8978 22.1724 37.9846 22.18 38.0714C22.1876 38.1583 22.2251 38.2398 22.2862 38.302C22.3929 38.385 22.5217 38.4347 22.6564 38.4448C22.894 38.493 23.1285 38.541 23.3634 38.6036C23.5343 38.6495 23.7048 38.6965 23.8735 38.7496C24.0026 38.7711 24.1256 38.8197 24.2346 38.8922C24.3318 38.9894 24.2492 39.1653 24.1549 39.2148C23.9605 39.317 23.6886 39.2703 23.479 39.2628C23.121 39.2538 22.7628 39.2628 22.4058 39.2899C22.101 39.3104 21.7969 39.3399 21.4919 39.3593C21.2051 39.3655 20.9197 39.4012 20.6403 39.4661C20.2273 39.5798 20.4027 40.223 20.8175 40.1088C21.0214 40.0608 21.2297 40.034 21.4392 40.0291C21.6947 40.0132 21.9495 39.991 22.2047 39.9716C22.4949 39.9496 22.7857 39.9316 23.0769 39.927C23.332 39.9231 23.5873 39.9474 23.8422 39.9395C24.3143 39.9246 24.7468 39.743 24.9008 39.2632C24.9403 39.1445 24.9524 39.0184 24.9362 38.8943C24.9201 38.7702 24.8761 38.6514 24.8075 38.5467C24.6475 38.3147 24.3982 38.2209 24.1403 38.1361C23.8587 38.0432 23.5703 37.9618 23.2813 37.8945C23.1789 37.8705 23.0755 37.8507 22.9725 37.8303C22.9118 37.8182 22.8511 37.8064 22.7906 37.7938C22.7683 37.7892 22.6571 37.7628 22.6904 37.7799L22.81 37.8995L22.7985 37.8761L22.8321 38.133L22.8208 38.1636C22.8648 38.0871 22.877 37.9964 22.8546 37.911C22.8322 37.8257 22.7771 37.7526 22.7013 37.7076C22.6245 37.665 22.5342 37.6537 22.4493 37.676C22.3644 37.6982 22.2913 37.7524 22.2452 37.8271L22.2445 37.8259Z" fill="#211715"/>
<path d="M20.8196 39.756C20.7296 40.1858 20.4014 40.6187 20.086 40.9364C20.0529 40.9697 20.0185 41.0012 19.984 41.0336C19.9692 41.0475 19.9526 41.0613 19.9365 41.0738C19.9868 41.0348 19.9471 41.0627 19.9381 41.0708C19.9255 41.08 19.9122 41.0881 19.8984 41.0952C19.9468 41.0641 19.9132 41.0938 19.8895 41.0952C19.8907 41.0952 19.7923 41.093 19.7645 41.0888C19.5109 41.044 19.2659 40.9597 19.0385 40.8389C18.4892 40.5578 18.083 40.0811 17.7167 39.5966C17.6889 39.5593 17.6592 39.5223 17.6313 39.4846C17.6681 39.5344 17.6346 39.488 17.6282 39.4786C17.5956 39.431 17.5648 39.3822 17.5349 39.3325C17.4655 39.2173 17.4023 39.0984 17.3423 38.978C17.2471 38.8057 17.1813 38.6187 17.1479 38.4246C17.1098 38.2474 17.1249 38.0629 17.1912 37.8942C17.3209 37.6338 17.5903 37.4776 17.8543 37.3497C17.93 37.3045 17.9849 37.2314 18.0073 37.1461C18.0297 37.0609 18.0177 36.9702 17.9739 36.8937C17.928 36.8188 17.8549 36.7645 17.7699 36.7422C17.6849 36.7199 17.5946 36.7313 17.5178 36.7741C16.9223 37.062 16.4389 37.5506 16.4625 38.2515C16.4811 38.8004 16.7308 39.3364 17.0332 39.7859C17.4338 40.3811 17.9512 40.984 18.5824 41.3491C18.8677 41.5127 19.1747 41.6349 19.4944 41.7122C19.8224 41.7906 20.1175 41.7776 20.3856 41.5633C20.6311 41.3534 20.8456 41.1097 21.0226 40.8394C21.2278 40.5695 21.3774 40.2616 21.4629 39.9335C21.5505 39.515 20.9075 39.3364 20.8201 39.7563L20.8196 39.756Z" fill="#211715"/>
<path d="M32.3386 33.595C32.1304 33.121 31.8908 32.5754 31.7592 32.4107C31.2494 31.7154 31.2407 30.6824 30.9399 29.8295C30.5386 28.6909 29.6127 28.0427 28.7042 27.4211C28.1162 27.0112 27.5071 26.6325 26.8793 26.2865C26.7341 26.2076 26.57 26.1705 26.405 26.1792C26.24 26.1879 26.0807 26.2422 25.9446 26.3359C25.8676 26.387 25.8019 26.4534 25.7517 26.531C25.7014 26.6086 25.6677 26.6957 25.6526 26.7868C25.6374 26.878 25.6412 26.9713 25.6637 27.061C25.6862 27.1506 25.7269 27.2347 25.7833 27.3079L25.8805 27.4343C25.5501 27.2573 25.3464 27.1951 25.1272 27.2466C24.8319 27.316 24.6272 27.5971 24.7067 28.0081C24.7656 28.3119 25.9692 29.2162 26.1962 29.3805L26.2587 29.4257L26.1661 29.4139C26.0027 29.3778 25.8317 29.4033 25.6859 29.4856C25.5885 29.564 25.5103 29.6638 25.4575 29.7772C25.407 29.9068 25.3794 30.0442 25.3759 30.1832C25.3661 30.5137 25.7484 30.8613 25.9552 31.0961C25.6184 31.0564 25.273 31.06 25.0869 31.2312C24.848 31.4512 24.9433 31.9038 25.1135 32.1737C25.3987 32.6586 25.7367 33.1103 26.1215 33.5206C26.5223 33.939 26.9461 34.3677 27.4521 34.6498C27.7274 34.8019 28.0124 34.9357 28.3053 35.0504C28.3617 35.0681 28.4155 35.093 28.4655 35.1245C28.5529 35.2084 28.6269 35.3053 28.6848 35.4118C28.8031 35.5834 29.1465 36.0608 29.3537 36.3677C30.0774 35.5823 31.3691 34.4452 32.3386 33.595Z" fill="white"/>
<path d="M26.0699 27.1392C26.0293 27.0905 26.0018 27.0321 25.9901 26.9697C25.9784 26.9073 25.983 26.843 26.0033 26.7829C26.0236 26.7227 26.059 26.6688 26.1061 26.6263C26.1533 26.5837 26.2105 26.554 26.2724 26.5399C26.6046 26.4288 26.8962 26.6771 27.1675 26.8351C27.7768 27.19 28.3646 27.5812 28.9398 27.9889C29.497 28.3837 30.0386 28.8318 30.3877 29.4285C30.7697 30.0811 30.8276 30.8449 31.0228 31.562C31.1267 31.9444 31.2918 32.3075 31.5119 32.637C31.7222 32.9971 31.9026 33.3738 32.0514 33.7633C32.0965 33.8392 32.1696 33.8942 32.2549 33.9166C32.3402 33.939 32.4309 33.9269 32.5074 33.8829C32.5821 33.8368 32.6362 33.7637 32.6585 33.6788C32.6807 33.5939 32.6695 33.5037 32.627 33.4269C32.478 33.0432 32.3006 32.6712 32.0962 32.314C32.0003 32.1769 31.9137 32.0335 31.8371 31.8847C31.7555 31.6977 31.691 31.5038 31.6444 31.3052C31.4292 30.472 31.3343 29.6215 30.8365 28.8917C30.3717 28.2103 29.7144 27.713 29.0425 27.2503C28.4028 26.7938 27.7366 26.3755 27.0474 25.9976C26.8246 25.8764 26.5698 25.8266 26.3178 25.855C26.0657 25.8833 25.8284 25.9885 25.6381 26.1562C25.459 26.3218 25.3458 26.5465 25.3194 26.7889C25.293 27.0314 25.3551 27.2752 25.4944 27.4754C25.5407 27.5499 25.6137 27.6038 25.6986 27.626C25.7834 27.6482 25.8735 27.6371 25.9504 27.595C26.0262 27.5499 26.0812 27.4768 26.1035 27.3914C26.1259 27.3061 26.1138 27.2154 26.0699 27.1389V27.1392Z" fill="#211715"/>
<path d="M29.0985 29.2824C28.5543 28.8608 27.9943 28.4591 27.4322 28.062C27.1309 27.8491 26.8281 27.6377 26.5201 27.4346C26.2464 27.2397 25.9494 27.0798 25.636 26.9587C25.4401 26.8778 25.2225 26.8662 25.0191 26.9257C24.8157 26.9852 24.6387 27.1123 24.5173 27.286C24.3959 27.4597 24.3374 27.6697 24.3514 27.8812C24.3655 28.0926 24.4512 28.293 24.5946 28.4491C24.9863 28.9204 25.5249 29.2992 26.0166 29.659C26.6546 30.1259 27.3004 30.5865 27.9108 31.0893C27.9745 31.1495 28.0588 31.1831 28.1465 31.1831C28.2341 31.1831 28.3185 31.1495 28.3821 31.0893C28.444 31.0264 28.4787 30.9418 28.4787 30.8536C28.4787 30.7655 28.444 30.6808 28.3821 30.618C27.424 29.8287 26.3663 29.1681 25.473 28.38C25.3638 28.2837 25.2562 28.1855 25.1562 28.0793C25.135 28.0568 25.1146 28.0334 25.0936 28.0107C25.0852 28.0016 25.0274 27.9264 25.0765 27.9935C25.0627 27.9748 25.051 27.9541 25.0368 27.9359C24.9873 27.8719 25.0325 27.9609 25.031 27.933C25.0136 27.6105 25.1728 27.5073 25.4359 27.5939C25.6867 27.6927 25.9238 27.8234 26.1413 27.9827C26.415 28.1619 26.6839 28.3484 26.9515 28.5363C27.2842 28.7697 27.6146 29.0063 27.9428 29.246C28.0839 29.3488 28.2244 29.4522 28.3645 29.5564C28.4223 29.5994 28.4799 29.6426 28.5372 29.6859C28.5614 29.7041 28.7046 29.814 28.6268 29.7537C28.6907 29.8136 28.7749 29.847 28.8625 29.847C28.95 29.847 29.0343 29.8136 29.0981 29.7537C29.1601 29.6909 29.1949 29.6063 29.1949 29.5181C29.1949 29.4298 29.1601 29.3452 29.0981 29.2824H29.0985Z" fill="#211715"/>
<path d="M26.166 29.0795C25.9772 29.0476 25.7831 29.075 25.6106 29.1581C25.438 29.2411 25.2955 29.3756 25.2026 29.5431C25.0998 29.72 25.0458 29.9211 25.0459 30.1258C25.046 30.3304 25.1004 30.5314 25.2034 30.7082C25.4225 31.0278 25.6777 31.321 25.964 31.5821C26.2517 31.8726 26.5538 32.1478 26.8666 32.411C26.9302 32.4713 27.0146 32.505 27.1023 32.505C27.19 32.505 27.2744 32.4713 27.338 32.411C27.3998 32.3481 27.4344 32.2635 27.4344 32.1753C27.4344 32.0872 27.3998 32.0025 27.338 31.9397C26.8398 31.525 26.3736 31.0734 25.9433 30.5887C25.8548 30.4979 25.782 30.3932 25.7278 30.2786C25.7024 30.1861 25.7051 30.0882 25.7357 29.9973C25.746 29.9427 25.7678 29.8908 25.7995 29.8452C25.7959 29.8505 25.8332 29.8013 25.8227 29.8138C25.8227 29.8138 25.9081 29.727 25.854 29.7722C25.9518 29.7277 26.0621 29.7184 26.166 29.7459C26.2542 29.7454 26.3387 29.7101 26.4011 29.6477C26.4634 29.5853 26.4987 29.5009 26.4993 29.4127C26.4973 29.3249 26.4616 29.2412 26.3995 29.1792C26.3374 29.1171 26.2538 29.0813 26.166 29.0794V29.0795Z" fill="#211715"/>
<path d="M25.9362 30.7595C25.3529 30.7003 24.6785 30.8309 24.6143 31.5274C24.5641 32.0742 24.9476 32.5595 25.2459 32.9786C25.603 33.4721 26.0121 33.9256 26.4663 34.3314C26.9481 34.756 27.5011 35.0923 28.0998 35.3247C28.1614 35.341 28.2204 35.366 28.2749 35.3991C28.3179 35.4474 28.3542 35.5012 28.3829 35.5591C28.4394 35.6442 28.4998 35.7268 28.5588 35.8103C28.7291 36.0507 28.8999 36.2907 29.0644 36.535C29.3029 36.8888 29.8807 36.5556 29.64 36.1985C29.4089 35.8557 29.1552 35.5271 28.9308 35.1801C28.8625 35.0593 28.7732 34.9517 28.667 34.8623C28.5391 34.7833 28.4021 34.7202 28.2589 34.6744C27.9933 34.5651 27.7368 34.4351 27.4917 34.2856C27.0388 33.9779 26.629 33.6112 26.2732 33.1951C25.9363 32.825 25.6402 32.4197 25.3899 31.9863C25.3181 31.8636 25.217 31.6133 25.2974 31.4953C25.3993 31.3453 25.7795 31.4096 25.9362 31.4259C26.0244 31.4253 26.1088 31.39 26.1712 31.3277C26.2336 31.2653 26.2689 31.1808 26.2694 31.0926C26.2675 31.0048 26.2318 30.9212 26.1697 30.8591C26.1076 30.797 26.0239 30.7614 25.9362 30.7595Z" fill="#211715"/>
<path d="M30.0969 23.9468C31.3847 24.4745 32.6734 24.9995 33.958 25.535C34.6523 25.8245 35.3467 26.1162 36.0368 26.416C36.6235 26.671 37.2529 26.9043 37.7841 27.2652C38.176 27.5162 38.5173 27.8384 38.7904 28.2151C39.06 28.6407 39.2727 29.0997 39.4229 29.5806C39.754 30.559 40.0112 31.5593 40.2561 32.5621C40.6816 34.3 41.1236 36.0325 41.2822 37.8203C41.3827 38.9013 41.3738 39.9898 41.2556 41.069C41.1547 41.9577 40.9543 42.9874 40.3602 43.6918C39.823 44.3289 38.9787 44.6468 38.1571 44.6461C37.3282 44.6461 36.5086 44.2534 35.8067 43.8446C35.2056 43.473 34.645 43.0395 34.1343 42.5512C33.5688 42.0396 33.0217 41.5079 32.4853 40.9661C31.5082 39.9795 30.5489 38.9639 29.6731 37.8855C29.636 37.8392 29.599 37.7929 29.562 37.7466L29.5098 37.6804C29.4946 37.661 29.4475 37.5998 29.4881 37.6526C29.4285 37.5747 29.3698 37.4964 29.3131 37.4165C29.2688 37.354 29.2254 37.2907 29.1855 37.2253C29.1705 37.2009 29.1558 37.1761 29.1423 37.1509C29.1273 37.1231 29.1146 37.0584 29.1247 37.1194C29.1362 37.1888 29.128 37.1262 29.1247 37.108C29.1221 37.0923 29.1329 37.2191 29.1343 37.1664C29.1343 37.1623 29.1375 37.2621 29.1298 37.2061C29.1313 37.1931 29.1353 37.1805 29.1416 37.1691C29.1632 37.125 29.0983 37.2354 29.1316 37.1939C29.1526 37.1613 29.1717 37.1276 29.1888 37.0928C29.2116 37.0567 29.2362 37.0219 29.2609 36.987C29.2677 36.9776 29.3116 36.9191 29.2852 36.9537C29.2609 36.9855 29.3203 36.9101 29.3316 36.8962C29.4105 36.799 29.4934 36.7064 29.5777 36.6145C30.5205 35.588 31.6016 34.6826 32.648 33.7654C32.8609 33.5786 33.0739 33.3915 33.2868 33.2042H32.8155C34.1533 34.4189 35.5161 35.6191 36.774 36.9179C37.073 37.2266 37.544 36.755 37.2453 36.4466C35.9874 35.1478 34.6246 33.9471 33.2868 32.7329C33.2232 32.6724 33.1389 32.6387 33.0511 32.6387C32.9634 32.6387 32.8791 32.6724 32.8155 32.7329C31.7453 33.6825 30.6492 34.606 29.6278 35.6088C29.2592 35.9707 28.8256 36.3606 28.5762 36.8204C28.5283 36.8946 28.4964 36.9781 28.4825 37.0653C28.4686 37.1526 28.4731 37.2418 28.4955 37.3272C28.55 37.4711 28.6257 37.6061 28.72 37.7276C29.4463 38.7668 30.349 39.7019 31.2196 40.6181C32.2577 41.743 33.3679 42.7992 34.5431 43.7801C35.2537 44.3528 36.0596 44.796 36.9238 45.0892C37.7821 45.3932 38.7213 45.3762 39.568 45.0414C40.0065 44.8708 40.4036 44.6088 40.733 44.2728C41.0666 43.8986 41.3251 43.4637 41.4945 42.9918C41.8833 42.0059 41.9785 40.895 42.0115 39.8442C42.0763 37.7646 41.7105 35.7021 41.222 33.6888C41.0073 32.8035 40.7947 31.9162 40.5566 31.0365C40.2789 30.009 40.0012 28.9165 39.4429 27.9998C38.9625 27.211 38.1626 26.647 37.3364 26.2679C36.7144 25.9824 36.0847 25.7133 35.4547 25.446C33.9865 24.823 32.5108 24.218 31.0346 23.6145C30.7809 23.5108 30.5272 23.4071 30.2735 23.3032C30.1883 23.2802 30.0974 23.2918 30.0207 23.3353C29.9439 23.3789 29.8874 23.451 29.8634 23.5359C29.8421 23.6211 29.8545 23.7112 29.8978 23.7875C29.9412 23.8638 30.0123 23.9205 30.0963 23.9458L30.0969 23.9468Z" fill="#211715"/>
<path d="M23.8299 17.9048C24.2451 18.3117 24.9033 18.4297 25.4605 18.4296C26.0178 18.4294 26.6761 18.3128 27.092 17.9062C27.3992 17.6058 26.9277 17.1347 26.6207 17.4349C26.6068 17.4488 26.5374 17.5071 26.579 17.4739C26.6185 17.4428 26.5288 17.5074 26.5082 17.5199C26.4721 17.5421 26.4349 17.5625 26.3971 17.5815C26.3717 17.5943 26.3458 17.6065 26.3197 17.6179C26.3649 17.5982 26.3197 17.6179 26.2984 17.6251C26.0293 17.72 25.7457 17.7667 25.4604 17.763C25.1803 17.7678 24.9016 17.7226 24.6373 17.6297C24.633 17.6282 24.5372 17.5881 24.6011 17.6169C24.5792 17.6072 24.5575 17.5971 24.5361 17.5865C24.4945 17.5658 24.4528 17.5433 24.4125 17.5186C24.3821 17.4997 24.3539 17.4761 24.3232 17.4581C24.4078 17.5077 24.3253 17.4572 24.301 17.4335C23.9944 17.133 23.5228 17.6039 23.8299 17.9048Z" fill="#211715"/>
<path d="M25.381 14.8357C25.4463 15.0722 25.4986 15.3121 25.5376 15.5543L25.5257 15.4657C25.5304 15.4986 25.5313 15.5319 25.5283 15.565L25.5403 15.4764C25.5381 15.4916 25.5344 15.5065 25.5293 15.521L25.5629 15.4413C25.5586 15.4513 25.5533 15.4609 25.5472 15.47L25.5993 15.4025C25.5923 15.4111 25.5844 15.4188 25.5758 15.4257L25.6433 15.3736C25.625 15.3849 25.606 15.3949 25.5864 15.4036L25.6659 15.37C25.6352 15.3831 25.603 15.3925 25.57 15.3978L25.6586 15.386C25.6287 15.3895 25.5985 15.3895 25.5686 15.386L25.6572 15.3979C25.6232 15.3932 25.59 15.3849 25.5559 15.3803C25.4691 15.36 25.3779 15.372 25.2992 15.4139C25.2614 15.436 25.2283 15.4653 25.2018 15.5002C25.1754 15.535 25.156 15.5748 25.1449 15.6171C25.1338 15.6595 25.1312 15.7036 25.1371 15.747C25.1431 15.7904 25.1575 15.8321 25.1796 15.8699C25.2008 15.9075 25.2293 15.9404 25.2636 15.9667C25.2978 15.9929 25.337 16.012 25.3788 16.0227C25.4529 16.0327 25.5248 16.0516 25.6002 16.0549C25.7123 16.0557 25.8229 16.0297 25.9228 15.9789C25.9854 15.9509 26.0409 15.9091 26.0853 15.8568C26.1296 15.8044 26.1616 15.7427 26.1789 15.6764C26.2015 15.5674 26.2003 15.4548 26.1755 15.3463C26.1365 15.1148 26.0831 14.8854 26.0236 14.6582C26.0001 14.573 25.9437 14.5006 25.8669 14.457C25.79 14.4133 25.6989 14.402 25.6137 14.4255C25.5285 14.449 25.4561 14.5054 25.4124 14.5822C25.3688 14.6591 25.3575 14.7502 25.381 14.8354V14.8357Z" fill="#211715"/>
<path d="M21.5919 12.8276C21.4742 13.2088 21.5502 14.0857 22.2723 14.1607C23.2268 14.1555 23.2782 13.0953 22.9571 12.5967C22.6944 12.1884 21.921 12.0182 21.5919 12.8276Z" fill="#211715"/>
<path d="M29.204 12.8315C29.3211 13.2128 29.2443 14.0897 28.5221 14.1639C27.5676 14.1576 27.5173 13.0974 27.8388 12.599C28.102 12.1911 28.8758 12.0218 29.204 12.8315Z" fill="#211715"/>
</svg>
