<svg width="45" height="45" viewBox="0 0 45 45" fill="none" xmlns="http://www.w3.org/2000/svg">
<g clip-path="url(#clip0_21_281)">
<path d="M44.2894 21.5526V25.3421C44.2894 26.3885 43.4412 27.2369 42.3947 27.2369H41.4473L38.6052 42.6039C38.4986 43.5635 37.6874 44.2895 36.722 44.2895H8.27783C7.31235 44.2895 6.5013 43.5635 6.39469 42.6039L3.55257 27.2369H2.6052C1.55877 27.2369 0.710449 26.3886 0.710449 25.3421V21.5526C0.710449 20.5062 1.55868 19.6579 2.6052 19.6579H3.55257C3.55257 15.4721 6.94576 12.0789 11.1316 12.0789H19.8475C20.7253 7.75468 24.5482 4.5 29.1316 4.5H31.9737C37.2059 4.5 41.4473 8.74143 41.4473 13.9736V19.6579H42.3947C43.4411 19.6579 44.2894 20.5062 44.2894 21.5526Z" fill="#E99980"/>
<path d="M44.2894 21.5526V25.3421C44.2894 26.3885 43.4412 27.2369 42.3947 27.2369H41.4473L41.0969 29.1316H3.90299L3.55257 27.2369H2.6052C1.55877 27.2369 0.710449 26.3886 0.710449 25.3421V21.5526C0.710449 20.5062 1.55868 19.6579 2.6052 19.6579H42.3947C43.4411 19.6579 44.2894 20.5062 44.2894 21.5526Z" fill="#E99980"/>
<path d="M26.2895 15.8684H15.8684C12.2059 15.8684 9.23682 12.8994 9.23682 9.23678C9.23682 4.52777 13.0542 0.710419 17.7632 0.710419H24.3948C28.5806 0.710419 31.9738 4.10361 31.9738 8.2894V10.1842C31.9737 13.3235 29.4288 15.8684 26.2895 15.8684Z" fill="#84D88B"/>
<path d="M44.2894 21.5526V25.3421C44.2894 26.3885 43.4412 27.2369 42.3947 27.2369H2.6052C1.55877 27.2369 0.710449 26.3886 0.710449 25.3421V21.5526C0.710449 20.5062 1.55868 19.6579 2.6052 19.6579H42.3947C43.4411 19.6579 44.2894 20.5062 44.2894 21.5526Z" fill="#E99980"/>
<path d="M29.1317 4.5H31.9738C37.2059 4.5 41.4475 8.7416 41.4475 13.9736V19.6579H19.658V13.9736C19.658 8.7416 23.8996 4.5 29.1317 4.5Z" fill="white"/>
<path d="M35.7632 19.6579C35.7632 21.7508 34.0666 23.4474 31.9737 23.4474H23.4474C21.7967 23.4474 20.3925 22.3919 19.8729 20.9191C19.606 20.1627 18.8901 19.6579 18.0879 19.6579H3.55273C3.55273 15.4721 6.94593 12.0789 11.1317 12.0789H28.1843C32.37 12.079 35.7632 15.4722 35.7632 19.6579Z" fill="#FFE77C"/>
<path d="M7.34212 27.9474H2.60525C1.16868 27.9474 0 26.7786 0 25.3421V21.5526C0 20.1161 1.16868 18.9474 2.60525 18.9474H2.87227C3.23385 14.7079 6.8001 11.3684 11.1316 11.3684H12.079C12.4714 11.3684 12.7895 11.6864 12.7895 12.0789C12.7895 12.4714 12.4713 12.7894 12.079 12.7894H11.1316C7.58426 12.7894 4.65645 15.4927 4.2997 18.9473H25.3422C25.7347 18.9473 26.0527 19.2653 26.0527 19.6578C26.0527 20.0503 25.7347 20.3683 25.3422 20.3683H20.4082C20.4595 20.469 20.5046 20.574 20.5429 20.6824C20.9764 21.9111 22.1437 22.7367 23.4475 22.7367H31.9738C33.6716 22.7367 35.0528 21.3555 35.0528 19.6577C35.0528 15.8704 31.9717 12.7893 28.1844 12.7893H19.8622C19.8529 12.7895 19.8438 12.7895 19.8344 12.7893H14.9212C14.5288 12.7893 14.2107 12.4713 14.2107 12.0788C14.2107 11.6863 14.5288 11.3683 14.9212 11.3683H19.2839C19.8657 9.16251 21.1769 7.21107 23.0198 5.82653C23.651 5.35228 24.3367 4.95211 25.0579 4.63702C26.3451 4.07461 27.7158 3.78932 29.1318 3.78932H31.9739C37.5894 3.78932 42.1581 8.35796 42.1581 13.9736V16.8157C42.1581 17.2082 41.8402 17.5262 41.4476 17.5262C41.0551 17.5262 40.7371 17.2082 40.7371 16.8157V13.9736C40.7371 9.1415 36.806 5.21042 31.974 5.21042H29.1319C27.913 5.21042 26.7338 5.45572 25.6269 5.93921C25.0066 6.21018 24.4168 6.55453 23.8735 6.96261C22.389 8.07803 21.3053 9.62007 20.7622 11.3682H28.1845C32.7553 11.3682 36.474 15.0869 36.474 19.6577C36.474 22.1389 34.4552 24.1577 31.974 24.1577H23.4476C21.5425 24.1577 19.8367 22.9511 19.203 21.1553C19.0369 20.6845 18.5889 20.3682 18.0882 20.3682H2.60525C1.95223 20.3682 1.42102 20.8994 1.42102 21.5525V25.3419C1.42102 25.995 1.95223 26.5262 2.60525 26.5262H7.34212C7.73455 26.5262 8.05263 26.8442 8.05263 27.2367C8.05263 27.6292 7.73446 27.9474 7.34212 27.9474ZM9.30313 10.8948C9.33671 10.8948 9.37046 10.8925 9.40465 10.8876C9.79304 10.832 10.0629 10.472 10.0074 10.0836C9.96759 9.80534 9.94746 9.52049 9.94746 9.23687C9.94746 4.92732 13.4536 1.4211 17.7632 1.4211H24.3948C25.9737 1.4211 27.4578 1.94186 28.6871 2.92702C28.9932 3.17241 29.4403 3.12311 29.6859 2.81689C29.9312 2.51077 29.8819 2.06358 29.5757 1.81811C28.113 0.645645 26.273 0 24.3947 0H17.7631C12.6699 0 8.52636 4.1436 8.52636 9.23687C8.52636 9.58755 8.55141 9.94017 8.60071 10.285C8.65134 10.6392 8.95526 10.8948 9.30313 10.8948ZM29.1316 43.579H8.2778C7.67355 43.579 7.16757 43.1262 7.10086 42.5256C7.09893 42.5086 7.09647 42.4917 7.09339 42.4748L4.77694 29.9497C4.70558 29.5639 4.33468 29.3087 3.94901 29.3803C3.56317 29.4516 3.30812 29.8223 3.37957 30.2082L5.6918 42.71C5.85088 44.0175 6.95777 45 8.2778 45H29.1315C29.524 45 29.842 44.682 29.842 44.2895C29.842 43.897 29.524 43.579 29.1316 43.579ZM8.52636 35.7631C8.52636 36.1557 8.84452 36.4736 9.23687 36.4736H13.8201L14.216 39.6408C14.261 40.0003 14.5671 40.2632 14.9202 40.2632C14.9496 40.2632 14.9794 40.2613 15.0092 40.2576C15.3985 40.2089 15.6748 39.8537 15.6261 39.4644L15.2523 36.4736H21.7895V39.5526C21.7895 39.9451 22.1077 40.2631 22.5 40.2631C22.8925 40.2631 23.2105 39.9451 23.2105 39.5526V36.4736H28.1842C28.5767 36.4736 28.8947 36.1557 28.8947 35.7631C28.8947 35.3706 28.5767 35.0526 28.1842 35.0526H23.2105V31.9736C23.2105 31.5811 22.8925 31.2631 22.5 31.2631C22.1076 31.2631 21.7895 31.5811 21.7895 31.9736V35.0526H15.0746L14.6787 31.8855C14.63 31.4962 14.2747 31.2199 13.8856 31.2686C13.4962 31.3173 13.22 31.6724 13.2687 32.0618L13.6425 35.0526H9.23687C8.84443 35.0526 8.52636 35.3707 8.52636 35.7631ZM31.1145 31.2687C30.725 31.2198 30.37 31.4962 30.3213 31.8856L29.3739 39.4646C29.3252 39.8539 29.6015 40.2091 29.9908 40.2578C30.0208 40.2615 30.0505 40.2634 30.0799 40.2634C30.4329 40.2634 30.739 40.0004 30.784 39.641L31.7314 32.062C31.78 31.6724 31.5038 31.3173 31.1145 31.2687ZM35.7631 36.4736C36.1557 36.4736 36.4736 36.1557 36.4736 35.7631C36.4736 35.3706 36.1557 35.0526 35.7631 35.0526H32.921C32.5285 35.0526 32.2105 35.3706 32.2105 35.7631C32.2105 36.1557 32.5285 36.4736 32.921 36.4736H35.7631ZM42.3947 18.9474H38.6053C38.2127 18.9474 37.8947 19.2654 37.8947 19.6579C37.8947 20.0504 38.2127 20.3684 38.6053 20.3684H42.3947C43.0478 20.3684 43.579 20.8996 43.579 21.5526V25.3421C43.579 25.9951 43.0478 26.5264 42.3947 26.5264H41.4599C41.451 26.5262 41.4421 26.5262 41.4333 26.5264H10.1842C9.79181 26.5264 9.47373 26.8443 9.47373 27.2369C9.47373 27.6294 9.79189 27.9474 10.1842 27.9474H40.5933L37.9066 42.4748C37.9034 42.4917 37.9009 42.5086 37.8991 42.5256C37.8324 43.1262 37.3264 43.579 36.7221 43.579H31.9737C31.5812 43.579 31.2632 43.897 31.2632 44.2895C31.2632 44.682 31.5812 45 31.9737 45H36.7221C38.0424 45 39.1492 44.0174 39.3083 42.7099L42.0385 27.9474H42.3947C43.8312 27.9474 45 26.7786 45 25.3421V21.5526C45 20.1161 43.8312 18.9474 42.3947 18.9474Z" fill="black"/>
</g>
<defs>
<clipPath id="clip0_21_281">
<rect width="45" height="45" fill="white"/>
</clipPath>
</defs>
</svg>
