<svg width="50" height="50" viewBox="0 0 50 50" fill="none" xmlns="http://www.w3.org/2000/svg">
<path d="M33.4726 2.28633C31.4431 0.738236 29.527 0.313883 27.5969 0.342843C24.5372 0.388877 22.0393 1.48316 20.3254 3.36471C19.3359 4.45095 18.5958 6.05395 18.2831 7.49457C17.963 9.18875 17.9381 10.9255 18.2096 12.6282C18.2096 12.6282 24.1999 18.0686 26.8113 20.2997C30.204 22.5093 36.2115 26.2938 36.2115 26.2938C37.8403 25.6371 37.927 24.5387 37.9761 23.8791C38.0466 23.0001 37.9584 22.1155 37.7156 21.2677C37.4207 20.1038 36.8898 17.7455 37.1881 13.6356C37.3224 12.7752 37.3997 11.907 37.4197 11.0365C37.4339 10.6311 37.4397 10.2876 37.4416 10.0625C37.4677 7.7599 36.4752 5.10028 34.9835 3.5547L33.4726 2.28633Z" fill="#A98A75"/>
<path d="M34.1158 13.1779L32.6653 12.7865C31.6785 12.2078 30.6542 10.5385 30.2899 9.58035C29.9744 8.73498 29.7081 7.87205 29.4923 6.9959C28.0418 8.44137 25.949 9.49012 23.7325 10.0129C23.1369 10.0129 21.6986 10.072 20.9982 10.0779C20.3134 10.5554 19.6307 11.0119 18.9709 11.4234C18.8096 11.5238 18.6158 11.6318 18.4923 11.708L18.1958 11.8896L18.2015 11.9566C18.3098 13.2437 18.3619 14.5291 18.4358 15.7128C18.4414 15.8005 18.4477 15.888 18.4546 15.9751C18.6111 17.925 19.1577 19.695 20.4754 20.8809C21.6447 21.9335 22.8963 22.5135 24.3554 22.6533C24.4464 23.2894 23.7921 23.6443 23.281 23.8251C22.8312 24.0276 22.1231 24.277 21.482 24.5065C21.9969 25.3775 22.7688 26.0678 23.6916 26.4827C24.6599 26.9166 25.7125 27.0491 26.751 27.0491C29.3949 27.0252 31.969 26.1983 34.1322 24.6781L33.6739 24.3666C32.9665 23.8857 32.1278 23.4017 31.7935 22.6144C31.6798 22.3178 31.5979 22.01 31.5491 21.6961C31.467 21.2669 31.3848 20.8378 31.3027 20.409C31.814 19.9276 32.2802 19.4004 32.6953 18.8339C32.6953 18.8339 33.0912 18.2815 33.2624 17.9635C33.2624 17.9635 33.3068 17.8813 33.3558 17.7914C33.7807 17.8229 34.2065 17.7453 34.5929 17.5659C35.1784 17.2281 35.6499 16.7234 35.9472 16.1162C36.2928 15.4952 36.4845 14.4324 36.2317 13.7951C36.1467 13.5822 35.9284 13.2065 35.2911 13.0788C34.9666 13.0098 34.6281 13.0677 34.345 13.2407L34.1158 13.1779Z" fill="white"/>
<path d="M31.0085 20.6497C31.1171 21.2163 31.1963 21.7997 31.3515 22.356C31.4841 22.834 31.7429 23.2677 32.1006 23.6115C32.447 23.9293 32.8221 24.2146 33.221 24.4635C33.7054 24.7862 34.185 25.1164 34.6664 25.4435C35.0237 25.6863 35.359 25.1065 35.0042 24.8653C34.5489 24.5556 34.0953 24.2429 33.6371 23.9374C33.2771 23.714 32.9365 23.461 32.6187 23.1809C32.3042 22.8936 32.0815 22.52 31.9784 22.1067C31.8396 21.571 31.7584 21.0151 31.6541 20.4711C31.5731 20.0484 30.9276 20.2273 31.0085 20.6492V20.6497Z" fill="#211715"/>
<path d="M24.0292 22.7505C24.0292 22.7783 24.0292 22.8056 24.0267 22.8332C24.024 22.8695 24.0406 22.7965 24.0213 22.8541C24.0133 22.8786 24.0071 22.9043 23.9994 22.9286C23.9889 22.9621 24.021 22.8951 23.9905 22.9472C23.9776 22.9693 23.9654 22.9917 23.9522 23.0142C23.9412 23.0326 23.9122 23.0712 23.9412 23.0342C23.9082 23.0753 23.8721 23.1137 23.8332 23.1491C23.8136 23.1673 23.7933 23.1849 23.7728 23.202C23.7286 23.2386 23.8342 23.1621 23.75 23.2187C23.7043 23.2495 23.6589 23.2802 23.6114 23.3081C23.5638 23.3361 23.515 23.3622 23.4656 23.3868C23.441 23.399 23.4154 23.4104 23.3914 23.4221C23.382 23.4265 23.3154 23.4556 23.3673 23.4338C22.8522 23.6523 22.3221 23.8491 21.776 24.0452C21.6915 24.0705 21.6201 24.1275 21.5764 24.2042C21.5328 24.2808 21.5204 24.3714 21.5417 24.457C21.5658 24.5423 21.6225 24.6146 21.6996 24.6585C21.7766 24.7023 21.8678 24.7141 21.9535 24.6913C22.2883 24.5713 22.6217 24.4511 22.952 24.321C23.1082 24.2596 23.2607 24.1871 23.4172 24.1275C23.3753 24.1443 23.4242 24.1275 23.4416 24.1207C23.4662 24.1116 23.4907 24.1019 23.515 24.092C23.5918 24.0611 23.6685 24.0289 23.7435 23.9939C24.2456 23.7596 24.7001 23.3433 24.6976 22.7513C24.6963 22.3206 24.0267 22.3198 24.028 22.7513L24.0292 22.7505Z" fill="#211715"/>
<path d="M34.7461 3.79072C35.9221 5.02093 36.6307 6.69172 36.9486 8.34745C37.0893 9.18284 37.1365 10.0313 37.0894 10.8772C37.0751 11.341 37.0529 11.8049 37.0169 12.2676C36.9812 12.7271 36.9019 13.1779 36.8527 13.6349C36.7628 14.6128 36.7356 15.5955 36.7711 16.5769C36.7879 17.3285 36.8354 18.0798 36.9245 18.8264C36.9914 19.3887 37.0786 19.9479 37.194 20.5032C37.3063 21.0436 37.4638 21.5745 37.5622 22.1176C37.6561 22.6462 37.6862 23.1841 37.6518 23.7199C37.6468 23.984 37.6131 24.2467 37.5514 24.5035C37.3691 25.2141 36.8008 25.691 36.1218 25.9709C36.0376 25.9969 35.9665 26.0539 35.923 26.1305C35.8795 26.207 35.8667 26.2973 35.8874 26.3829C35.9115 26.4682 35.9681 26.5407 36.0452 26.5846C36.1223 26.6285 36.2136 26.6402 36.2992 26.6172C37.0226 26.3189 37.7071 25.8639 38.037 25.1274C38.2864 24.57 38.3291 23.9404 38.3346 23.3362C38.3467 22.0006 37.8773 20.7248 37.6744 19.4156C37.4406 17.7806 37.3723 16.1261 37.4707 14.4774C37.5189 13.4792 37.6856 12.4941 37.7342 11.4944C37.8016 10.6007 37.7888 9.70283 37.6958 8.81148C37.4342 6.81827 36.6218 4.78439 35.2183 3.31699C34.92 3.00496 34.447 3.47886 34.7449 3.79039L34.7461 3.79072Z" fill="#211715"/>
<path d="M38.4182 49.6652C38.1976 47.8719 38.0262 45.9992 37.9328 44.4699C39.3063 41.8697 39.8448 39.8447 40.626 37.4189C41.0501 36.102 41.4965 33.1111 41.2732 31.705C41.0676 30.5673 40.5846 29.4978 39.8671 28.5914C38.623 27.0639 37.0975 26.0844 34.2646 24.5829C32.0745 26.1612 29.4492 27.0221 26.7498 27.0473C25.7119 27.0473 24.6586 26.9147 23.6904 26.4808C22.8683 26.1111 22.1642 25.5216 21.6555 24.7774L16.306 24.1441C14.5316 24.9655 13.6837 25.7836 12.6003 27.9636C11.7633 29.6445 11.3234 31.5617 10.9247 33.3873C10.469 35.4662 10.0565 37.7547 10.1474 39.8885C10.2144 41.4592 10.8619 43.1452 12.2625 43.861C13.5515 44.5192 15.2422 44.24 16.3637 43.3173C16.3771 43.5572 16.3862 43.7131 16.3862 43.7131C16.4143 44.1985 16.5064 45.6927 16.4903 46.4118C16.4762 47.048 16.4079 48.2398 16.3062 49.654L38.4182 49.6652Z" fill="#E99980"/>
<path d="M18.5167 14.9593L17.8001 15.3869C17.5726 15.568 17.5233 15.6969 17.4497 16.032C17.3615 16.4349 17.2783 16.8129 17.1914 17.1768C17.0718 17.1484 16.9464 17.1563 16.8313 17.1996C16.7527 17.2256 16.6824 17.2723 16.628 17.3347C16.5735 17.3971 16.5369 17.473 16.5218 17.5545C16.3434 18.4337 16.273 19.3314 16.3122 20.2277C16.365 21.6763 16.4664 22.4606 16.6542 24.0601C16.7166 24.5614 16.7212 25.0683 16.6679 25.5707C16.6468 25.7782 16.216 26.7682 15.7975 27.7063L15.7583 27.7939C17.0119 28.2356 18.735 28.8517 19.855 29.2586C19.8624 29.2019 19.8676 29.1642 19.8676 29.1642C20.0084 28.3105 20.2004 27.4661 20.4424 26.6355C20.6561 26.0717 20.9753 25.5538 21.383 25.1097C21.4801 25.0042 21.5713 24.8936 21.6562 24.7782C21.6864 24.738 21.7145 24.6958 21.7399 24.6537C21.7919 24.5637 21.8337 24.4683 21.8645 24.3691C21.9854 23.9439 22.0734 23.5101 22.1276 23.0714L22.5185 14.8241L18.8915 14.7357L18.5167 14.9593Z" fill="white"/>
<path d="M35.4967 39.0609C35.1242 37.1419 34.7856 35.2158 34.4472 33.2905C34.3649 32.8218 34.2836 32.3531 34.2035 31.8844C34.1794 31.7991 34.1226 31.7266 34.0456 31.6828C33.9685 31.6389 33.8772 31.6272 33.7915 31.65C33.707 31.6753 33.6354 31.7322 33.5917 31.8089C33.5481 31.8856 33.5357 31.9762 33.5572 32.0618C33.8898 34.0239 34.2435 35.9826 34.6058 37.9395C34.686 38.3729 34.7665 38.8063 34.8505 39.239C34.9325 39.6617 35.578 39.4828 35.4962 39.0611L35.4967 39.0609Z" fill="#211715"/>
<path d="M23.3631 19.0499C23.7556 19.2582 24.1932 19.3674 24.6376 19.3679C24.8583 19.3745 25.079 19.3538 25.2947 19.3061C25.5176 19.2395 25.7347 19.1549 25.9438 19.053C26.028 19.0272 26.0992 18.9701 26.1428 18.8936C26.1863 18.817 26.199 18.7267 26.1782 18.6411C26.1542 18.5557 26.0975 18.4832 26.0204 18.4393C25.9433 18.3954 25.852 18.3837 25.7664 18.4067C25.5752 18.4985 25.3785 18.5782 25.1773 18.6453C25.1318 18.6575 25.0857 18.6675 25.0394 18.6759C25.0181 18.6797 24.9967 18.6833 24.9753 18.6863C25.0121 18.6811 24.9886 18.6846 24.9655 18.6863C24.8681 18.6941 24.7712 18.6997 24.6733 18.6983C24.579 18.697 24.4851 18.6903 24.3912 18.6806C24.3326 18.6745 24.4334 18.6874 24.3753 18.6791C24.352 18.6757 24.3289 18.6719 24.3058 18.6679C24.2546 18.659 24.2036 18.6488 24.153 18.6371C24.0663 18.6172 23.9809 18.5923 23.897 18.5627C23.89 18.5602 23.812 18.5304 23.8487 18.546C23.8798 18.5585 23.8237 18.5346 23.8182 18.5321C23.7785 18.513 23.7397 18.4929 23.701 18.471C23.3266 18.2564 22.9889 18.8347 23.3631 19.0492V19.0499Z" fill="#211715"/>
<path d="M26.3411 14.3827C26.248 13.9603 26.4081 13.0199 27.1948 13.0033C28.2255 13.0942 28.1865 14.244 27.7951 14.7539C27.4751 15.1716 26.6243 15.2863 26.3411 14.3827Z" fill="#211715"/>
<path d="M20.2034 14.0723C20.1197 13.6491 20.2712 12.7052 20.992 12.6851C21.9356 12.7716 21.8946 13.925 21.534 14.4384C21.2396 14.8586 20.459 14.9774 20.2034 14.0723Z" fill="#211715"/>
<path d="M23.3989 15.2404C23.2592 15.4522 23.1209 15.6678 23.0015 15.8919C22.953 15.9725 22.9156 16.0594 22.8904 16.15C22.8706 16.2298 22.8705 16.3132 22.8903 16.393C22.9101 16.4727 22.9491 16.5465 23.0039 16.6077C23.0865 16.6987 23.1899 16.7685 23.3052 16.8111C23.3842 16.8372 23.4662 16.8534 23.5493 16.8593L23.4602 16.8472C23.4741 16.8493 23.4877 16.8514 23.5014 16.8541C23.5885 16.8757 23.6806 16.8637 23.7594 16.8206C23.8162 16.7874 23.862 16.7382 23.8911 16.679C23.9201 16.6199 23.931 16.5535 23.9225 16.4882C23.914 16.4229 23.8864 16.3616 23.8431 16.3119C23.7999 16.2622 23.743 16.2263 23.6795 16.2088C23.6293 16.1989 23.5781 16.1939 23.5275 16.187L23.6164 16.1991C23.5705 16.1937 23.5255 16.1825 23.4825 16.1656L23.5625 16.1991C23.5488 16.1929 23.5355 16.1861 23.5225 16.1785C23.5155 16.1745 23.5086 16.1701 23.5019 16.1654C23.4814 16.1513 23.4925 16.1599 23.5354 16.1912C23.5285 16.1775 23.5029 16.1604 23.492 16.1502L23.4773 16.1335C23.5108 16.1818 23.5203 16.1911 23.5059 16.1614L23.5394 16.2414C23.536 16.232 23.5337 16.2221 23.5325 16.2121L23.5444 16.301C23.543 16.2855 23.543 16.2699 23.5444 16.2543L23.5324 16.3432C23.5373 16.3154 23.5449 16.2882 23.5553 16.262L23.5218 16.342C23.5874 16.2023 23.6629 16.0675 23.7478 15.9386C23.8221 15.8171 23.8985 15.6964 23.9765 15.5775C24.0207 15.5007 24.0328 15.4096 24.0104 15.3239C23.9879 15.2382 23.9326 15.1648 23.8564 15.1195C23.7793 15.077 23.6887 15.0658 23.6035 15.0883C23.5183 15.1108 23.445 15.1653 23.3989 15.2404Z" fill="#211715"/>
<path d="M30.7076 21.3404C31.3798 20.8263 31.9911 20.2371 32.5294 19.584C32.9136 19.1321 33.2554 18.6457 33.5505 18.131C33.7575 17.7529 33.1795 17.4146 32.9723 17.793C32.7078 18.2595 32.4008 18.7006 32.0553 19.1106C31.5579 19.7235 30.9921 20.2776 30.3691 20.7622C30.2946 20.809 30.2407 20.8824 30.2184 20.9675C30.196 21.0526 30.207 21.143 30.2489 21.2203C30.2941 21.2966 30.3676 21.352 30.4533 21.3744C30.5391 21.3969 30.6303 21.3847 30.7071 21.3404H30.7076Z" fill="#211715"/>
<path d="M33.6415 1.99723C32.2719 0.935874 30.6386 0.268469 28.9177 0.0669668C27.314 -0.105695 25.692 0.0588048 24.1557 0.549909C22.7523 0.994828 21.472 1.7608 20.4164 2.78701C19.2379 3.94775 18.4448 5.49048 18.0365 7.08528C17.8268 7.95664 17.7129 8.8483 17.6968 9.74439C17.6624 10.7391 17.7258 11.7349 17.886 12.7172C17.9101 12.8025 17.9669 12.875 18.044 12.9188C18.121 12.9627 18.2123 12.9744 18.298 12.9516C18.3826 12.9263 18.4542 12.8694 18.4979 12.7926C18.5415 12.7159 18.5539 12.6252 18.5323 12.5396C18.2666 10.9625 18.2785 9.35111 18.5676 7.77814C18.8549 6.28378 19.5165 4.76381 20.5409 3.62668C22.5043 1.44431 25.4746 0.540702 28.3512 0.690858C30.1817 0.786609 31.8498 1.47411 33.3035 2.57542C33.3803 2.61971 33.4715 2.63195 33.5572 2.60948C33.643 2.58701 33.7164 2.53165 33.7617 2.4554C33.8043 2.37821 33.8157 2.28756 33.7933 2.20225C33.7709 2.11694 33.7165 2.04352 33.6415 1.99723Z" fill="#211715"/>
<path d="M28.7206 21.5525C27.6404 22.0176 26.4859 22.2867 25.3114 22.3471C24.2321 22.3949 23.1586 22.1656 22.1931 21.6809C21.2211 21.1996 20.3977 20.4639 19.8104 19.5521C19.2445 18.6223 18.964 17.5371 18.8378 16.4636C18.6622 14.9699 18.6617 13.4543 18.5365 11.9552C18.501 11.529 17.831 11.5252 17.8669 11.9552C17.984 13.3654 18.0033 14.7842 18.1389 16.1924C18.2531 17.3781 18.5108 18.5666 19.0792 19.624C20.1863 21.6822 22.5086 22.9385 24.8063 23.0165C26.2195 23.0644 27.5948 22.7246 28.8982 22.1988C28.9824 22.173 29.0536 22.116 29.0971 22.0394C29.1407 21.9629 29.1534 21.8726 29.1326 21.787C29.1086 21.7016 29.0519 21.6291 28.9748 21.5852C28.8977 21.5413 28.8064 21.5296 28.7208 21.5526L28.7206 21.5525Z" fill="#211715"/>
<path d="M34.5127 13.5284C34.7204 13.4069 34.9636 13.3609 35.2013 13.3981C35.4389 13.4352 35.6565 13.5534 35.8171 13.7325C35.851 13.7815 35.8813 13.8329 35.9078 13.8863C35.9105 13.8917 35.9306 13.9365 35.914 13.8979C35.8916 13.8458 35.9307 13.9436 35.9334 13.9546C35.9524 14.0133 35.9683 14.073 35.981 14.1334C36.0239 14.3819 36.0263 14.6357 35.988 14.885C35.8626 15.8362 35.2812 16.8357 34.4096 17.2825C34.3315 17.3189 34.2504 17.3484 34.1672 17.3709C34.0487 17.4059 33.9276 17.4316 33.8051 17.4479C33.5224 17.4972 33.2314 17.4603 32.97 17.3419C32.5885 17.1425 32.2502 17.7202 32.632 17.9201C33.2028 18.2184 33.925 18.1822 34.5177 17.9598C35.1281 17.7002 35.6429 17.2576 35.9908 16.6929C36.3464 16.165 36.5731 15.5609 36.6526 14.9294C36.7239 14.3649 36.6842 13.7283 36.304 13.2743C35.8003 12.6728 34.8345 12.5533 34.1753 12.9502C33.807 13.1724 34.1428 13.7516 34.5132 13.5284H34.5127Z" fill="#211715"/>
<path d="M29.182 7.136C29.4614 8.27966 29.7977 9.46567 30.3538 10.5101C30.8624 11.4666 31.5495 12.5054 32.4965 13.0756C32.8666 13.2982 33.2038 12.7195 32.8345 12.4974C31.9724 11.9785 31.3605 10.992 30.9051 10.1219C30.3925 9.14309 30.089 8.02622 29.828 6.95805C29.7257 6.53956 29.0799 6.71683 29.1824 7.136H29.182Z" fill="#211715"/>
<path d="M23.5686 7.79538C21.883 9.09121 20.1325 10.3004 18.324 11.4184C17.9558 11.6405 18.2916 12.2197 18.662 11.9966C20.4705 10.8786 22.221 9.6694 23.9066 8.37357C23.9812 8.32691 24.0353 8.2535 24.0576 8.16834C24.0799 8.08318 24.0689 7.9927 24.0268 7.9154C23.9815 7.83922 23.908 7.78391 23.8223 7.76145C23.7366 7.73899 23.6454 7.75118 23.5686 7.79538Z" fill="#211715"/>
<path d="M29.2534 6.76171C27.7301 8.26695 25.7086 9.19784 23.6442 9.68999C23.2257 9.79043 23.4027 10.4357 23.8223 10.3356C25.9958 9.81755 28.1245 8.81869 29.727 7.23511C30.0338 6.93178 29.5604 6.45838 29.2534 6.76171Z" fill="#211715"/>
<path d="M21.3678 24.9464C21.8696 25.6816 22.5479 26.2791 23.3406 26.6842C24.2178 27.1005 25.1712 27.3325 26.1416 27.3658C28.0068 27.455 29.8688 27.1328 31.5956 26.422C32.5982 26.0156 33.5507 25.4951 34.4342 24.8708C34.7832 24.6239 34.4491 24.043 34.0964 24.2926C32.6626 25.3164 31.0386 26.0432 29.3199 26.4302C27.6273 26.8037 25.7099 26.9057 24.0657 26.2772C23.2082 25.9455 22.4698 25.3642 21.946 24.6085C21.7019 24.2569 21.1214 24.5917 21.3678 24.9464Z" fill="#211715"/>
<path d="M37.6078 44.623C37.7154 46.3079 37.8781 47.9896 38.0835 49.6652C38.0861 49.7532 38.1223 49.8368 38.1845 49.899C38.2467 49.9612 38.3303 49.9974 38.4183 50C38.5069 49.9995 38.5918 49.964 38.6544 49.9014C38.7171 49.8387 38.7526 49.7538 38.7531 49.6652C38.5477 47.9896 38.3848 46.3079 38.2773 44.623C38.2501 44.1952 37.5803 44.192 37.6078 44.623Z" fill="#211715"/>
<path d="M16.0527 43.713C16.1029 44.5899 16.1699 45.4707 16.158 46.3501C16.1427 47.4519 16.0513 48.5555 15.972 49.654C15.941 50.084 16.6108 50.082 16.6416 49.654C16.7209 48.5555 16.8123 47.4519 16.8276 46.3501C16.8394 45.4712 16.7732 44.5899 16.7223 43.713C16.6973 43.2847 16.0276 43.2818 16.0527 43.713Z" fill="#211715"/>
<path d="M21.8055 22.981C21.7297 23.4533 21.7006 24.0022 21.4794 24.4346C21.3406 24.6553 21.1789 24.8609 20.9972 25.0479C20.8147 25.2683 20.6475 25.501 20.4968 25.7443C20.2155 26.2448 20.0139 26.7862 19.8992 27.3488C19.7594 27.9196 19.6538 28.498 19.5453 29.0751C19.466 29.4963 20.1113 29.6768 20.191 29.2531C20.2974 28.6873 20.4009 28.1203 20.5366 27.5605C20.6471 26.9965 20.8547 26.4559 21.1502 25.9629C21.2866 25.7536 21.4376 25.5543 21.6021 25.3663C21.7992 25.1663 21.9659 24.9384 22.0968 24.69C22.3127 24.2094 22.369 23.6741 22.4517 23.159C22.4725 23.0734 22.4599 22.9831 22.4163 22.9065C22.3727 22.83 22.3016 22.773 22.2173 22.7472C22.1317 22.7243 22.0404 22.736 21.9633 22.7799C21.8863 22.8237 21.8296 22.8962 21.8055 22.9815V22.981Z" fill="#211715"/>
<path d="M16.0871 27.8752C16.3452 27.2945 16.6073 26.7142 16.8389 26.1221C16.9994 25.6784 17.0671 25.2066 17.0379 24.7357C17.0222 24.0865 16.9137 23.439 16.8415 22.7939C16.7826 22.2676 16.731 21.7406 16.6964 21.2121C16.6574 20.618 16.6266 20.0213 16.6433 19.4257C16.6525 19.1029 16.6733 18.7803 16.7084 18.4594C16.7222 18.174 16.7703 17.8912 16.8516 17.6173C16.866 17.5862 16.8876 17.559 16.9147 17.538C16.9418 17.517 16.9736 17.5028 17.0073 17.4967C17.0411 17.4905 17.0758 17.4926 17.1085 17.5027C17.1413 17.5128 17.1711 17.5306 17.1956 17.5547C17.3616 17.7604 17.3586 18.1211 17.3872 18.3694C17.4658 19.0504 17.5424 19.7332 17.635 20.4116C17.6776 20.7573 17.7825 21.0923 17.9445 21.4006C18.0952 21.6797 18.3081 21.9196 18.4613 22.1993C18.7559 22.733 18.8978 23.3375 18.8714 23.9466C18.8608 24.3776 19.5304 24.3775 19.541 23.9466C19.5653 23.3271 19.443 22.7106 19.1841 22.1472C18.9295 21.5943 18.4775 21.1551 18.3367 20.5524C18.2724 20.213 18.2261 19.8703 18.1981 19.5259C18.1536 19.1655 18.1077 18.8053 18.0655 18.4447C17.9986 17.8712 17.9661 17.0106 17.2671 16.8508C17.1185 16.8154 16.9636 16.817 16.8158 16.8552C16.6679 16.8935 16.5317 16.9674 16.419 17.0704C16.1932 17.2892 16.1584 17.624 16.1112 17.9191C16.0079 18.5765 15.9605 19.2414 15.9694 19.9068C16.0021 21.1383 16.1004 22.3671 16.2638 23.5882C16.3204 23.9919 16.3556 24.3983 16.3695 24.8057C16.3912 25.082 16.3703 25.3601 16.3077 25.6301C16.0775 26.2802 15.8108 26.9168 15.5089 27.5369C15.4668 27.6142 15.4558 27.7047 15.4781 27.7898C15.5004 27.875 15.5544 27.9484 15.6291 27.9951C15.7059 28.0392 15.797 28.0514 15.8827 28.0289C15.9684 28.0064 16.0418 27.9511 16.0871 27.8749V27.8752Z" fill="#211715"/>
<path d="M17.5585 17.0779C17.6355 16.7466 17.7065 16.414 17.781 16.0822C17.7952 16.0193 17.8101 15.9563 17.829 15.8946C17.8365 15.87 17.8457 15.846 17.8539 15.8218C17.8719 15.7695 17.869 15.7124 17.8458 15.6623C17.8225 15.6122 17.7808 15.573 17.7293 15.553C17.6778 15.533 17.6206 15.5338 17.5697 15.5551C17.5187 15.5763 17.478 15.6165 17.456 15.6672C17.434 15.7179 17.4326 15.7751 17.4519 15.8268C17.4712 15.8786 17.5098 15.9208 17.5596 15.9447C17.6094 15.9686 17.6665 15.9723 17.7189 15.955C17.7714 15.9377 17.8151 15.9007 17.8409 15.8519C17.8483 15.8395 17.8547 15.8266 17.8601 15.8132C17.8708 15.793 17.8831 15.7741 17.8953 15.7548C17.9244 15.7084 17.8943 15.763 17.8785 15.7741C17.8872 15.7658 17.895 15.7567 17.9018 15.7469C17.9432 15.7024 17.988 15.6612 18.0357 15.6236C18.0982 15.5607 18.1333 15.4756 18.1333 15.3869C18.1333 15.2982 18.0982 15.2131 18.0357 15.1502C17.9717 15.0897 17.887 15.056 17.7989 15.056C17.7109 15.056 17.6262 15.0897 17.5622 15.1502C17.3462 15.3303 17.199 15.5795 17.1453 15.8556C17.0633 16.2026 16.9923 16.5525 16.911 16.8998C16.8874 16.9854 16.8987 17.0769 16.9426 17.1542C16.9864 17.2314 17.0591 17.2881 17.1448 17.3117C17.2304 17.3353 17.3219 17.3239 17.3991 17.2801C17.4764 17.2363 17.533 17.1635 17.5566 17.0779H17.5585Z" fill="#211715"/>
<path d="M16.1376 23.855C15.1789 24.3013 14.2897 24.8679 13.6128 25.6929C12.757 26.7357 12.1462 28.0029 11.6864 29.2634C11.1477 30.7402 10.8134 32.2868 10.4896 33.8222C10.1248 35.4236 9.89788 37.0533 9.81134 38.6935C9.7623 40.047 9.86876 41.4271 10.5554 42.6273C10.8556 43.1723 11.2874 43.6334 11.8115 43.9687C12.3356 44.304 12.9353 44.5028 13.5559 44.5469C14.1719 44.5861 14.7891 44.4931 15.3662 44.2741C15.9433 44.0551 16.4669 43.7152 16.9018 43.2771C17.3744 42.7575 17.7824 42.1825 18.1169 41.5648C18.4842 40.9201 18.8051 40.25 19.0773 39.5597C19.6418 38.1513 19.9812 36.6818 20.3201 35.2074C20.6421 33.8071 20.9463 32.403 21.2423 30.9972C21.3175 30.6401 21.3924 30.2825 21.4671 29.9243C21.555 29.504 20.9096 29.3242 20.8214 29.7464C20.5437 31.0752 20.264 32.4035 19.9689 33.7284C19.6532 35.1466 19.3629 36.5829 18.931 37.9713C18.5325 39.3085 17.9534 40.5851 17.2096 41.7657C16.8827 42.2711 16.5273 42.7855 16.0402 43.1501C15.5854 43.4862 15.0609 43.716 14.5055 43.8225C13.9661 43.941 13.4048 43.9129 12.8798 43.7413C12.3549 43.5697 11.8854 43.2608 11.5201 42.8466C10.7315 41.9324 10.4896 40.679 10.4717 39.5063C10.4747 37.9637 10.6352 36.4254 10.9508 34.9155C11.2325 33.4434 11.5479 31.9646 11.9751 30.5273C12.3539 29.191 12.9244 27.9167 13.6689 26.7441C14.1949 25.9294 14.9154 25.2584 15.7655 24.7916C15.9975 24.663 16.2354 24.5457 16.4758 24.4339C16.5519 24.3885 16.6071 24.3151 16.6296 24.2294C16.652 24.1438 16.6399 24.0527 16.5958 23.9759C16.5496 23.9007 16.4762 23.8463 16.3909 23.8239C16.3056 23.8015 16.2149 23.8129 16.1378 23.8557L16.1376 23.855Z" fill="#211715"/>
<path d="M14.3554 27.659C16.2128 28.2879 18.0574 28.9598 19.9004 29.6294C20.2095 29.7419 20.5198 29.8522 20.8255 29.9726C20.9111 29.9956 21.0024 29.9838 21.0795 29.94C21.1566 29.8961 21.2133 29.8236 21.2373 29.7382C21.2588 29.6526 21.2465 29.562 21.2028 29.4852C21.1591 29.4085 21.0875 29.3516 21.0029 29.3264C19.264 28.6421 17.4851 28.0463 15.7225 27.4258C15.3266 27.2865 14.9309 27.1469 14.534 27.0123C14.1251 26.8739 13.9495 27.5203 14.3561 27.6579L14.3554 27.659Z" fill="#211715"/>
<path d="M32.0069 48.4951C33.1196 48.5197 34.2812 48.5092 35.2868 47.9695C36.3549 47.3963 37.2162 46.4376 37.8091 45.3934C38.4526 44.2598 39.0141 43.0816 39.4893 41.8678C39.9044 40.8079 40.2494 39.7231 40.5911 38.6371C40.9046 37.7089 41.1572 36.7613 41.3471 35.8002C41.5427 34.7677 41.6501 33.7205 41.6681 32.6698C41.678 30.564 40.6194 28.6707 39.0875 27.2796C37.5344 25.87 35.6092 24.9046 33.7653 23.9399L33.4102 23.7541C33.0287 23.5545 32.6904 24.1322 33.0723 24.3323C34.7708 25.221 36.5428 26.0832 38.0532 27.2785C39.5318 28.4484 40.8249 30.1197 40.9778 32.0372C41.0292 32.982 40.977 33.9296 40.8223 34.8631C40.704 35.7635 40.5099 36.6522 40.2422 37.52C39.5512 39.6813 38.8928 41.8402 37.8652 43.8723C37.3064 44.9771 36.7177 46.0404 35.7513 46.8422C35.3599 47.183 34.9065 47.4452 34.4158 47.6143C33.9364 47.7537 33.4399 47.8256 32.9407 47.828C32.6297 47.8367 32.3186 47.8327 32.0076 47.8258C31.5766 47.8163 31.5766 48.4859 32.0076 48.4954L32.0069 48.4951Z" fill="#211715"/>
<path d="M25.9378 31.9497C26.0823 34.7561 26.2569 37.5697 26.6752 40.3509C26.8387 41.5404 27.0897 42.7163 27.426 43.8691C27.7149 44.8142 28.0858 45.7155 28.7261 46.4781C29.5881 47.5046 30.8141 48.3864 32.1857 48.4849C32.6156 48.5157 32.6138 47.8461 32.1857 47.8153C31.0664 47.7349 30.067 46.9751 29.3418 46.1683C28.7318 45.4893 28.3836 44.6808 28.1111 43.8183C27.3716 41.4769 27.1178 38.9782 26.9087 36.5424C26.7773 35.0137 26.6862 33.4819 26.6074 31.9497C26.5855 31.521 25.9157 31.5183 25.9378 31.9497Z" fill="#211715"/>
<path d="M26.8003 23.7129C26.852 23.4005 26.9317 23.0934 27.0385 22.7952C27.318 22.1752 27.6379 21.5742 27.9961 20.996C28.3698 20.2816 28.9302 18.633 29.2068 17.6559C29.2988 17.3541 29.4896 17.0919 29.7485 16.9114C29.8721 16.8317 30.0199 16.7981 30.1659 16.8165C30.3118 16.8348 30.4467 16.904 30.5468 17.0118C30.5983 17.0604 30.6423 17.1165 30.6772 17.1782C30.741 16.9825 30.785 16.8481 30.785 16.8481C30.785 16.8481 30.95 16.344 31.0071 16.1701C31.0707 15.989 31.1935 15.8347 31.3557 15.7321C31.5179 15.6295 31.71 15.5846 31.9009 15.6048C32.1119 15.6275 32.3081 15.7244 32.4544 15.8782L32.5005 15.8C32.5005 15.8 32.689 15.4804 32.7631 15.3571C32.9359 15.0698 33.2419 15.0022 33.605 15.1395C33.744 15.1947 33.8639 15.2895 33.9497 15.4121C34.0356 15.5347 34.0836 15.6797 34.0879 15.8293C34.1152 16.096 34.0268 16.746 33.9121 17.4043H34.1063C34.2806 17.3927 34.4531 17.4457 34.5908 17.5533C34.7664 17.6784 34.8218 18.0769 34.7858 18.2946C34.4861 19.8232 34.0896 21.3312 33.5986 22.8094C33.1106 23.9163 32.6957 24.8038 32.2303 25.9135C32.1151 26.1567 32.0343 26.4147 31.9902 26.6802C31.9706 26.9628 31.9922 27.2467 32.0544 27.523C32.1093 27.8377 32.6854 30.1572 32.77 30.5658L32.845 30.9282C31.3007 31.1559 29.3497 31.4497 27.8319 31.6914C27.8214 31.448 27.8152 31.3024 27.8152 31.3024C27.7832 30.574 27.7529 28.3625 27.6238 27.6745C27.5078 27.0568 27.1561 26.4937 26.9342 25.907C26.7046 25.3141 26.6377 24.6706 26.7405 24.0432C26.7569 23.9489 26.7771 23.8349 26.8003 23.7129Z" fill="white"/>
<path d="M26.362 32.2726C28.7596 31.8541 31.1713 31.5094 33.5793 31.1574C33.6647 31.1334 33.7372 31.0767 33.7811 30.9996C33.825 30.9225 33.8367 30.8313 33.8137 30.7456C33.7883 30.6611 33.7313 30.5896 33.6546 30.546C33.5779 30.5024 33.4873 30.4899 33.4017 30.5112C30.9937 30.8628 28.5822 31.2083 26.1845 31.6264C26.0992 31.6505 26.0267 31.7072 25.9829 31.7843C25.939 31.8613 25.9273 31.9526 25.9502 32.0382C25.9753 32.1229 26.0322 32.1945 26.109 32.2382C26.1857 32.2818 26.2764 32.2942 26.362 32.2726Z" fill="#211715"/>
<path d="M28.2852 21.1649C28.8307 20.1086 29.1821 18.9288 29.5162 17.7919C29.5823 17.567 29.7713 17.1866 30.0372 17.1449C30.3552 17.0946 30.457 17.4705 30.4309 17.7055C30.3408 18.2516 30.2093 18.79 30.0373 19.316C29.8689 19.9344 29.6967 20.5548 29.4866 21.1597C29.3451 21.5679 29.9918 21.7431 30.1322 21.3378C30.3423 20.732 30.5147 20.1123 30.683 19.494C30.7719 19.1677 30.8581 18.8411 30.9388 18.5118C31.0351 18.203 31.0913 17.883 31.1062 17.5598C31.1071 17.3565 31.0512 17.157 30.9447 16.9838C30.8382 16.8106 30.6854 16.6707 30.5035 16.5797C30.3211 16.4921 30.116 16.4635 29.9165 16.4977C29.7171 16.532 29.5332 16.6274 29.3905 16.7709C29.115 17.0313 28.9219 17.3668 28.8351 17.7358C28.7366 18.0719 28.6307 18.4054 28.52 18.7382C28.3032 19.4544 28.0313 20.1528 27.7068 20.8271C27.5093 21.2093 28.0871 21.5484 28.2852 21.1649Z" fill="#211715"/>
<path d="M27.7069 20.8271C27.2871 21.5494 26.7973 22.2878 26.5897 23.1061C26.384 23.9164 26.2717 24.74 26.4759 25.5633C26.6729 26.3601 27.1932 27.0459 27.3171 27.8632C27.3253 27.9166 27.3109 27.813 27.3184 27.8717C27.3221 27.9015 27.3254 27.9313 27.3288 27.9611C27.3345 28.0135 27.3395 28.0659 27.3444 28.1185C27.3566 28.2542 27.3663 28.3901 27.375 28.5261C27.3951 28.8418 27.4085 29.158 27.4209 29.4741C27.444 30.0837 27.4543 30.6939 27.4801 31.3032C27.4985 31.7326 28.1683 31.7348 28.1497 31.3032C28.1028 30.2093 28.1152 29.1086 28.0042 28.0182C27.9801 27.7287 27.9226 27.4429 27.833 27.1665C27.6966 26.7679 27.4982 26.3946 27.3333 26.0082C27.1579 25.6146 27.0551 25.1925 27.03 24.7623C27.0349 23.9677 27.2146 23.1839 27.5565 22.4666C27.7788 22.0215 28.0352 21.595 28.2851 21.1649C28.5028 20.7916 27.9236 20.4542 27.7069 20.8271Z" fill="#211715"/>
<path d="M33.2882 22.6896C32.9768 23.3943 32.6569 24.0957 32.3471 24.801C32.188 25.1636 32.0303 25.527 31.8794 25.8929C31.7204 26.2359 31.6412 26.6104 31.6478 26.9884C31.6824 27.3919 31.7531 27.7915 31.8591 28.1824C31.9639 28.6277 32.0719 29.0723 32.179 29.5169C32.2702 29.8959 32.3673 30.2742 32.4468 30.6552C32.5351 31.0767 33.1807 30.8983 33.0925 30.4773C32.9371 29.7359 32.7418 29.002 32.5662 28.2653C32.4976 27.977 32.4222 27.6884 32.3702 27.3965C32.291 27.0478 32.3074 26.6842 32.4177 26.344C32.5357 26.0059 32.6896 25.6778 32.8325 25.3495C33.1707 24.5726 33.5234 23.8021 33.8659 23.0271C33.908 22.9497 33.919 22.8593 33.8966 22.7741C33.8743 22.689 33.8203 22.6156 33.7457 22.5689C33.6688 22.5248 33.5777 22.5126 33.492 22.5351C33.4063 22.5576 33.3329 22.6129 33.2877 22.6891L33.2882 22.6896Z" fill="#211715"/>
<path d="M31.6272 21.8653C32.0007 20.6627 32.3303 19.4437 32.6411 18.2238C32.7871 17.6516 32.9714 17.0475 32.9759 16.4539C32.9795 16.2827 32.9453 16.1128 32.8757 15.9563C32.8061 15.7999 32.7028 15.6607 32.5732 15.5488C32.4436 15.4369 32.2909 15.3549 32.126 15.3088C31.9611 15.2627 31.788 15.2536 31.6192 15.2821C31.4291 15.3129 31.2495 15.3897 31.0958 15.5056C30.9421 15.6216 30.819 15.7732 30.7372 15.9475C30.6309 16.2132 30.5389 16.4844 30.4613 16.7599C30.3274 17.1703 30.9734 17.3458 31.1069 16.938C31.2229 16.5839 31.28 16.0374 31.7121 15.9436C31.8157 15.9235 31.923 15.9353 32.0198 15.9773C32.1166 16.0194 32.1984 16.0897 32.2544 16.1792C32.342 16.3605 32.3073 16.6161 32.2652 16.8655C32.081 17.9462 31.7462 19.0135 31.4511 20.0676C31.3004 20.6092 31.1474 21.1507 30.9807 21.6877C30.8525 22.1002 31.4986 22.2766 31.6264 21.8657L31.6272 21.8653Z" fill="#211715"/>
<path d="M32.9173 22.5434C33.3309 21.2428 33.7244 19.9233 34.0221 18.5907C34.1727 17.9169 34.2926 17.2324 34.3788 16.5473C34.453 15.9575 34.4839 15.2717 33.9032 14.915C33.7302 14.8023 33.5286 14.7412 33.3221 14.739C33.1156 14.7367 32.9128 14.7934 32.7373 14.9022C32.4934 15.0773 32.3608 15.3788 32.2115 15.6318C31.9919 16.0037 32.5704 16.341 32.7895 15.9697C32.8711 15.7977 32.9701 15.6345 33.085 15.4826C33.2268 15.3308 33.5266 15.4183 33.6453 15.5638C33.748 15.7242 33.7864 15.9174 33.7529 16.1048C33.7375 16.3705 33.6995 16.635 33.6587 16.8976C33.4724 18.0262 33.2197 19.1428 32.9017 20.2416C32.703 20.9528 32.4954 21.6618 32.2716 22.3655C32.1409 22.7771 32.787 22.9532 32.9173 22.5434Z" fill="#211715"/>
<path d="M34.1063 17.74C34.3345 17.7431 34.4312 17.8237 34.4579 18.0522C34.4655 18.2264 34.4449 18.4007 34.3969 18.5684C34.3029 19.0398 34.1909 19.5075 34.0734 19.9735C33.8323 20.9289 33.5757 21.8874 33.2429 22.8155C33.0973 23.2219 33.7441 23.3968 33.8887 22.9934C34.2554 21.9315 34.5652 20.8507 34.8168 19.7558C34.9471 19.2754 35.0487 18.7878 35.1213 18.2954C35.1583 18.0145 35.1041 17.7291 34.9668 17.4813C34.8696 17.3461 34.7398 17.2375 34.5895 17.1657C34.4393 17.0938 34.2733 17.0611 34.107 17.0704C33.6759 17.0645 33.6758 17.7341 34.107 17.74H34.1063Z" fill="#211715"/>
<path d="M11.2011 14.2246C11.1946 14.2521 11.1792 14.2766 11.1572 14.2943C11.1352 14.312 11.1079 14.3218 11.0797 14.3221C11.0515 14.3225 11.024 14.3133 11.0015 14.2962C10.9791 14.2791 10.9631 14.2549 10.956 14.2276C10.8174 13.6933 10.6021 13.0548 10.2753 12.6743C9.8766 12.2102 9.30042 12.013 8.76642 11.8983C8.73831 11.8921 8.71315 11.8765 8.69511 11.8541C8.67707 11.8317 8.66724 11.8038 8.66724 11.775C8.66724 11.7462 8.67707 11.7183 8.69511 11.6959C8.71315 11.6735 8.73831 11.6579 8.76642 11.6517C9.29523 11.5396 9.87827 11.3422 10.266 10.9237C10.6356 10.5255 10.8442 9.72396 10.9613 9.18009C10.9673 9.15202 10.9827 9.12683 11.0049 9.10865C11.0271 9.09047 11.0548 9.08039 11.0835 9.08006C11.1122 9.07972 11.1401 9.08917 11.1627 9.10683C11.1854 9.12449 11.2013 9.14932 11.2079 9.17724C11.3378 9.72112 11.569 10.5248 11.9388 10.9237C12.3226 11.338 12.8774 11.5355 13.3899 11.6482C13.4182 11.6544 13.4434 11.6702 13.4615 11.6928C13.4795 11.7154 13.4892 11.7435 13.489 11.7724C13.4888 11.8013 13.4786 11.8293 13.4603 11.8516C13.4419 11.874 13.4164 11.8893 13.3881 11.8951C12.8407 12.0048 12.2406 12.1927 11.842 12.6568C11.5137 13.0371 11.3268 13.6854 11.2011 14.2246Z" fill="#FFDA71"/>
<path d="M10.8776 14.1356L10.8608 14.1786L10.9471 14.0308L10.9911 14.0001H11.1692C11.2585 14.1045 11.284 14.1092 11.2459 14.0144C11.2347 13.9716 11.2226 13.929 11.2097 13.8866C11.1874 13.8104 11.1639 13.7348 11.1392 13.6596C11.0837 13.4907 11.0199 13.3249 10.9494 13.1621C10.8337 12.8784 10.6706 12.6164 10.467 12.3874C10.2526 12.1615 9.99594 11.9799 9.71149 11.8531C9.41972 11.7192 9.11087 11.6736 8.81608 11.5608L8.96373 11.6469V11.9036L8.81608 11.9897C8.96674 11.9324 9.13414 11.9113 9.28948 11.8631C9.46355 11.8088 9.6336 11.7424 9.79837 11.6643C10.1216 11.5169 10.4044 11.2936 10.6228 11.0134C10.8111 10.7453 10.9559 10.4491 11.0518 10.1358C11.1523 9.84114 11.1886 9.51856 11.2983 9.22997L11.212 9.37778L10.9544 9.37527L10.8684 9.22746C10.9856 9.51538 11.0303 9.83947 11.1374 10.1339C11.2382 10.4388 11.3821 10.7277 11.5648 10.9918C11.7744 11.268 12.0456 11.4916 12.3567 11.6447C12.5204 11.7268 12.6901 11.7965 12.8643 11.8533C13.0196 11.9035 13.188 11.9272 13.3395 11.986L13.1917 11.9L13.1902 11.6435L13.3378 11.5573C13.0461 11.6644 12.737 11.7043 12.4471 11.8288C12.1458 11.9518 11.8735 12.1364 11.6476 12.3707C11.2064 12.8473 11.0234 13.5182 10.8776 14.1349C10.7788 14.5534 11.4241 14.7328 11.5232 14.3128C11.6474 13.7854 11.7837 13.1653 12.1888 12.7753C12.3959 12.5865 12.6422 12.446 12.9101 12.3638C13.1462 12.2846 13.5139 12.2778 13.6927 12.0926C13.7452 12.0369 13.783 11.969 13.8029 11.895C13.8228 11.8211 13.8241 11.7434 13.8067 11.6688C13.7893 11.5943 13.7537 11.5252 13.7031 11.4677C13.6525 11.4102 13.5885 11.3661 13.5168 11.3393C13.2482 11.2681 12.9837 11.1821 12.7245 11.0817C12.4767 10.9721 12.2602 10.8024 12.0947 10.5879C11.9414 10.3553 11.8222 10.1019 11.7409 9.83545C11.6536 9.57799 11.6078 9.30363 11.514 9.04985C11.4887 8.98175 11.4476 8.92061 11.3942 8.87141C11.3407 8.82221 11.2764 8.78636 11.2064 8.76677C11.1365 8.74718 11.0629 8.74442 10.9916 8.75871C10.9204 8.77299 10.8536 8.80392 10.7966 8.84897C10.5927 9.01336 10.5811 9.3582 10.516 9.59674C10.448 9.87122 10.3503 10.1375 10.2247 10.3909C9.95439 10.9051 9.43495 11.1401 8.89342 11.2781C8.61638 11.3496 8.32075 11.443 8.33314 11.793C8.3467 12.1613 8.69271 12.215 8.97662 12.2952C9.28433 12.3708 9.57313 12.509 9.82499 12.7013C10.0597 12.908 10.2409 13.1685 10.3531 13.4604C10.4225 13.6261 10.4829 13.7955 10.5341 13.9677C10.566 14.1301 10.6166 14.2883 10.6847 14.4392C10.7348 14.5186 10.8078 14.5809 10.8941 14.6178C10.9804 14.6547 11.0759 14.6645 11.1679 14.6458C11.2509 14.6264 11.3274 14.5856 11.3897 14.5274C11.4521 14.4692 11.4981 14.3957 11.5231 14.3142C11.5461 14.2285 11.5344 14.1372 11.4905 14.0601C11.4467 13.983 11.3741 13.9263 11.2887 13.9024C11.2034 13.8812 11.1132 13.8936 11.0367 13.937C10.9602 13.9804 10.9032 14.0515 10.8776 14.1356Z" fill="#211715"/>
</svg>
